<svg width="28" height="28" viewBox="0 0 28 28" fill="none" xmlns="http://www.w3.org/2000/svg">
<g id="download 1">
<rect width="28" height="28" rx="5" fill="white" fill-opacity="0.2"/>
<g id="Group">
<path id="Vector" d="M11.3752 18.75C12.8396 20.2145 15.214 20.2145 16.6785 18.75L16.6785 18.75L19.3552 16.0733C19.8518 15.5937 19.8655 14.8024 19.3859 14.3058C18.9063 13.8093 18.115 13.7955 17.6184 14.2751C17.608 14.2852 17.5978 14.2954 17.5877 14.3058L15.2685 16.6241L15.2494 5.25C15.2494 4.55965 14.6897 4 13.9994 4C13.309 4 12.7494 4.55965 12.7494 5.25L12.7669 16.6058L10.466 14.305C9.96948 13.8254 9.17815 13.8391 8.69854 14.3357C8.23069 14.8201 8.23069 15.5881 8.69854 16.0725L11.3752 18.75Z" fill="white"/>
<path id="Vector_2" d="M22.75 16.084C22.0596 16.084 21.5 16.6436 21.5 17.334V21.1598C21.4995 21.3479 21.3472 21.5002 21.1592 21.5006H6.84082C6.65277 21.5002 6.50043 21.3479 6.5 21.1598V17.334C6.5 16.6436 5.94035 16.084 5.25 16.084C4.55965 16.084 4 16.6436 4 17.334V21.1598C4.00184 22.728 5.27266 23.9988 6.84082 24.0007H21.1591C22.7273 23.9988 23.9981 22.728 24 21.1598V17.334C24 16.6436 23.4404 16.084 22.75 16.084Z" fill="white"/>
</g>
</g>
</svg>
