<svg width="40" height="40" viewBox="0 0 40 40" fill="none" xmlns="http://www.w3.org/2000/svg">
<path fill-rule="evenodd" clip-rule="evenodd" d="M18.8468 26.4178V23.3338C18.8468 23.1752 18.7633 23.0394 18.622 22.9678C18.4805 22.8961 18.3216 22.9092 18.1939 23.003L9.0107 29.7403C8.90555 29.8174 8.8475 29.9277 8.84328 30.058C8.83914 30.1882 8.89 30.3021 8.99 30.3857L18.1732 38.0717C18.2983 38.1763 18.4623 38.1978 18.6102 38.1288C18.7579 38.0598 18.8468 37.9202 18.8468 37.7571V34.8921C33.1641 34.8921 37.86 24.3662 33.7004 16.8807C31.3995 25.8407 23.8863 26.4178 18.8468 26.4178Z" fill="#FE646F"/>
<path fill-rule="evenodd" clip-rule="evenodd" d="M17.6163 27.8876V24.9152L9.53656 30.843L8.99008 30.3857C8.89015 30.302 8.83922 30.1882 8.84336 30.058C8.84758 29.9277 8.9057 29.8173 9.01078 29.7403L18.194 23.003C18.3218 22.9092 18.4806 22.8962 18.6221 22.9678C18.7635 23.0394 18.847 23.1753 18.847 23.3338V26.4179C23.353 26.4179 29.8366 25.9565 32.8037 19.4537C29.738 27.1598 22.6741 27.8876 17.6163 27.8876Z" fill="#FD4755"/>
<path fill-rule="evenodd" clip-rule="evenodd" d="M21.1532 13.5821V16.6662C21.1532 16.8248 21.2367 16.9605 21.3781 17.0322C21.5195 17.1038 21.6784 17.0908 21.8061 16.9969L30.9892 10.2597C31.0944 10.1826 31.1524 10.0723 31.1566 9.94195C31.1608 9.81171 31.1099 9.69781 31.0099 9.61421L21.8267 1.92828C21.7016 1.82367 21.5375 1.80218 21.3898 1.87117C21.242 1.94015 21.1531 2.07976 21.1531 2.24289V5.10789C6.83579 5.10789 2.13993 15.6337 6.29954 23.1192C8.60055 14.1592 16.1137 13.5821 21.1532 13.5821Z" fill="#B7E546"/>
<path fill-rule="evenodd" clip-rule="evenodd" d="M22.3837 12.1123V15.0845L30.4634 9.15674L31.0099 9.61408C31.1098 9.69775 31.1608 9.81158 31.1566 9.94182C31.1524 10.0721 31.0943 10.1824 30.9892 10.2595L21.806 16.9967C21.6782 17.0906 21.5194 17.1035 21.3779 17.032C21.2365 16.9603 21.1531 16.8245 21.1531 16.666V13.5819C16.647 13.5819 10.1634 14.0432 7.19633 20.546C10.262 12.84 17.3259 12.1123 22.3837 12.1123Z" fill="#ABD641"/>
</svg>
