<svg xmlns="http://www.w3.org/2000/svg" width="172" height="150" viewBox="0 0 172 150" fill="none">
  <path opacity="0.4" d="M161.183 101.163C164.253 98.0929 164.253 93.1146 161.183 90.0441C158.112 86.9735 153.134 86.9735 150.064 90.0441C146.993 93.1146 146.993 98.0929 150.064 101.163C153.134 104.234 158.112 104.234 161.183 101.163Z" fill="#D8EEE4"/>
  <path opacity="0.4" d="M34.7207 49.2024C39.4051 44.5181 39.4051 36.9233 34.7207 32.239C30.0364 27.5546 22.4416 27.5546 17.7573 32.239C13.0729 36.9233 13.0729 44.5181 17.7573 49.2024C22.4416 53.8868 30.0364 53.8868 34.7207 49.2024Z" fill="#D8EEE4"/>
  <path opacity="0.4" d="M67.7297 29.1895C71.1831 29.1895 73.9827 26.39 73.9827 22.9366C73.9827 19.4831 71.1831 16.6836 67.7297 16.6836C64.2763 16.6836 61.4767 19.4831 61.4767 22.9366C61.4767 26.39 64.2763 29.1895 67.7297 29.1895Z" fill="#D8EEE4"/>
  <path d="M58.775 26.0289C58.3884 26.0289 57.9978 25.9984 57.6146 25.9383L57.6516 25.7028C58.0227 25.7611 58.4008 25.7905 58.7755 25.7905L58.8191 25.7904L58.8206 26.0287L58.775 26.0289ZM60.0253 25.9235L59.9855 25.6885C60.3683 25.6235 60.7501 25.5266 61.1204 25.4004L61.1973 25.6259C60.8149 25.7563 60.4207 25.8564 60.0253 25.9235ZM56.439 25.6556C56.0565 25.5304 55.6813 25.3735 55.3236 25.1889L55.4328 24.9772C55.7792 25.1559 56.1426 25.3079 56.513 25.429L56.439 25.6556ZM62.307 25.1463L62.1953 24.9359C62.5402 24.7529 62.8722 24.5408 63.1819 24.3057L63.326 24.4955C63.0061 24.7384 62.6633 24.9573 62.307 25.1463ZM54.297 24.5506C53.9731 24.3112 53.6665 24.044 53.3858 23.7561L53.5565 23.5897C53.8282 23.8683 54.125 24.1272 54.4386 24.359L54.297 24.5506ZM64.2267 23.6889L64.0539 23.5247C64.3218 23.2425 64.5691 22.936 64.7889 22.6137L64.9857 22.7479C64.7588 23.0809 64.5033 23.3974 64.2267 23.6889ZM52.6143 22.8252C52.3839 22.4962 52.1783 22.1452 52.003 21.7821L52.2176 21.6785C52.3873 22.0302 52.5864 22.3699 52.8095 22.6885L52.6143 22.8252ZM65.5845 21.6976L65.3687 21.5965C65.5342 21.2433 65.6724 20.8744 65.7793 20.4999L66.0085 20.5653C65.8981 20.952 65.7554 21.333 65.5845 21.6976ZM51.5656 20.6551C51.4498 20.2685 51.3648 19.8707 51.313 19.4725L51.5492 19.4418C51.5996 19.8272 51.6819 20.2124 51.7939 20.5868L51.5656 20.6551ZM66.2462 19.3798L66.0096 19.3519C66.0427 19.0711 66.0595 18.7857 66.0595 18.5035C66.0595 18.3966 66.0571 18.2883 66.0523 18.1817L66.2903 18.1711C66.2953 18.2812 66.2977 18.3931 66.2977 18.5035C66.2977 18.7951 66.2804 19.0899 66.2462 19.3798ZM51.4922 18.2719L51.2541 18.2642C51.2671 17.8624 51.3131 17.4581 51.3907 17.0626L51.6245 17.1086C51.5493 17.4914 51.5048 17.8828 51.4922 18.2719ZM65.9056 17.0202C65.826 16.6404 65.7146 16.2624 65.5744 15.8969L65.7969 15.8116C65.9417 16.1889 66.0567 16.5791 66.1388 16.9713L65.9056 17.0202ZM51.9415 15.9814L51.718 15.8987C51.8576 15.5213 52.0287 15.1524 52.2266 14.802L52.4341 14.9191C52.2424 15.2585 52.0767 15.6158 51.9415 15.9814ZM65.5528 15.8413C65.4098 15.4773 65.2371 15.1232 65.0395 14.789L65.2446 14.6678C65.4487 15.0128 65.6269 15.3783 65.7746 15.7542L65.5528 15.8413ZM53.0896 13.9492L52.9036 13.8003C53.1552 13.4857 53.4341 13.1895 53.7324 12.9202L53.8921 13.097C53.6033 13.358 53.3332 13.6447 53.0896 13.9492ZM64.3641 13.833C64.1145 13.5344 63.8384 13.2536 63.5435 12.9985L63.6993 12.8183C64.004 13.0818 64.2892 13.3717 64.547 13.6802L64.3641 13.833ZM54.8215 12.3855L54.6924 12.1852C55.0297 11.9679 55.3883 11.7757 55.7581 11.6143L55.8535 11.8326C55.4952 11.989 55.1481 12.1751 54.8215 12.3855ZM62.5992 12.3066C62.2676 12.1023 61.9166 11.9231 61.5565 11.7741L61.6476 11.5538C62.0195 11.7077 62.3817 11.8928 62.7243 12.1037L62.5992 12.3066ZM56.9604 11.4502L56.9009 11.2195C57.2914 11.1186 57.6921 11.0489 58.0922 11.0124L58.1139 11.2496C57.7266 11.2851 57.3385 11.3526 56.9604 11.4502ZM60.4421 11.4144C60.0626 11.3247 59.6731 11.2652 59.2847 11.2377L59.3015 11C59.7028 11.0285 60.1049 11.0899 60.497 11.1825L60.4421 11.4144Z" fill="#FF7500" fill-opacity="0.5"/>
  <path d="M133.843 109.302L133.839 109.064C134.234 109.057 134.632 109.041 135.024 109.016L135.039 109.253C134.644 109.279 134.242 109.295 133.843 109.302ZM132.647 109.295C132.25 109.284 131.848 109.263 131.452 109.233L131.47 108.995C131.862 109.025 132.26 109.046 132.654 109.057L132.647 109.295ZM136.23 109.149L136.204 108.913C136.596 108.869 136.991 108.816 137.379 108.754L137.416 108.989C137.025 109.052 136.626 109.105 136.23 109.149ZM130.261 109.115C129.868 109.066 129.47 109.008 129.078 108.941L129.118 108.706C129.506 108.772 129.901 108.83 130.29 108.878L130.261 109.115ZM138.593 108.774L138.545 108.54C138.931 108.46 139.319 108.37 139.699 108.272L139.758 108.503C139.375 108.601 138.983 108.693 138.593 108.774ZM127.903 108.711C127.515 108.626 127.124 108.53 126.741 108.426L126.803 108.196C127.183 108.299 127.57 108.394 127.955 108.479L127.903 108.711ZM140.91 108.176L140.84 107.949C141.216 107.832 141.594 107.706 141.963 107.572L142.044 107.796C141.672 107.931 141.29 108.059 140.91 108.176ZM125.594 108.087C125.216 107.965 124.835 107.832 124.461 107.692L124.545 107.469C124.915 107.608 125.293 107.739 125.667 107.86L125.594 108.087ZM143.157 107.364L143.065 107.144C143.426 106.993 143.79 106.832 144.146 106.663L144.248 106.879C143.889 107.049 143.521 107.212 143.157 107.364ZM123.349 107.244C122.983 107.087 122.617 106.918 122.26 106.744L122.364 106.53C122.718 106.703 123.081 106.869 123.443 107.025L123.349 107.244ZM145.315 106.343L145.203 106.133C145.55 105.948 145.897 105.753 146.235 105.552L146.357 105.757C146.015 105.96 145.665 106.157 145.315 106.343ZM121.195 106.193C120.847 106.002 120.498 105.8 120.158 105.593L120.283 105.389C120.62 105.595 120.965 105.795 121.31 105.984L121.195 106.193ZM147.37 105.123L147.239 104.924C147.568 104.707 147.895 104.48 148.212 104.249L148.352 104.442C148.032 104.675 147.702 104.904 147.37 105.123ZM119.151 104.944C118.823 104.722 118.495 104.488 118.176 104.249L118.319 104.059C118.635 104.295 118.96 104.527 119.285 104.747L119.151 104.944ZM149.302 103.715L149.153 103.529C149.459 103.283 149.764 103.026 150.059 102.766L150.216 102.944C149.919 103.207 149.611 103.466 149.302 103.715ZM117.235 103.51C116.928 103.257 116.623 102.993 116.329 102.727L116.489 102.55C116.781 102.814 117.082 103.075 117.386 103.326L117.235 103.51ZM151.094 102.132L150.928 101.961C151.211 101.687 151.49 101.402 151.76 101.115L151.933 101.279C151.662 101.568 151.379 101.855 151.094 102.132ZM115.461 101.903C115.179 101.622 114.901 101.332 114.633 101.039L114.809 100.878C115.074 101.168 115.35 101.456 115.63 101.734L115.461 101.903ZM152.732 100.387L152.551 100.232C152.807 99.9322 153.059 99.6227 153.299 99.3127L153.488 99.4588C153.245 99.7718 152.99 100.084 152.732 100.387ZM113.847 100.138C113.593 99.8326 113.342 99.5174 113.104 99.2015L113.294 99.0577C113.53 99.3708 113.778 99.6831 114.03 99.9857L113.847 100.138ZM154.2 98.4959L154.005 98.3588C154.232 98.0362 154.454 97.7045 154.664 97.3727L154.865 97.5005C154.653 97.8353 154.429 98.1702 154.2 98.4959ZM112.405 98.231C112.181 97.9039 111.962 97.5669 111.753 97.2293L111.956 97.1041C112.163 97.4385 112.38 97.7724 112.602 98.0964L112.405 98.231ZM155.484 96.4747L155.277 96.3565C155.472 96.0151 155.662 95.6637 155.841 95.3122L156.054 95.4205C155.872 95.7753 155.681 96.13 155.484 96.4747ZM111.149 96.1983C110.956 95.8512 110.77 95.4954 110.594 95.1402L110.808 95.0347C110.982 95.3863 111.167 95.7391 111.357 96.0827L111.149 96.1983ZM156.573 94.3401L156.356 94.242C156.518 93.8819 156.674 93.5138 156.819 93.1484L157.04 93.236C156.894 93.6051 156.737 93.9765 156.573 94.3401ZM110.09 94.0577C109.931 93.6942 109.779 93.3224 109.638 92.953L109.861 92.8679C110 93.2338 110.151 93.602 110.309 93.9621L110.09 94.0577ZM157.455 92.1108L157.23 92.0337C157.357 91.662 157.477 91.2816 157.586 90.9033L157.815 90.9696C157.705 91.3516 157.583 91.7355 157.455 92.1108ZM109.238 91.8255C109.113 91.4472 108.997 91.0618 108.891 90.68L109.121 90.6165C109.225 90.9947 109.341 91.3764 109.464 91.7509L109.238 91.8255ZM158.121 89.8128L157.889 89.7573C157.98 89.3756 158.064 88.9856 158.137 88.5984L158.371 88.6427C158.297 89.0337 158.213 89.4275 158.121 89.8128ZM108.6 89.5194C108.512 89.1335 108.433 88.739 108.363 88.3466L108.598 88.3048C108.667 88.6936 108.745 89.0845 108.832 89.4668L108.6 89.5194ZM158.566 87.4622L158.33 87.4288C158.385 87.0406 158.431 86.6445 158.468 86.2516L158.705 86.2737C158.668 86.6704 158.621 87.0703 158.566 87.4622ZM108.182 87.164C108.132 86.7713 108.09 86.371 108.057 85.974L108.295 85.9547C108.327 86.3479 108.368 86.7445 108.419 87.1335L108.182 87.164ZM158.788 85.0803L158.55 85.0693C158.568 84.6778 158.577 84.2791 158.577 83.8843H158.816C158.816 84.2827 158.806 84.6852 158.788 85.0803ZM107.988 84.7796C107.978 84.4838 107.973 84.1826 107.973 83.8843C107.973 83.7837 107.973 83.6833 107.975 83.583L108.213 83.5858C108.212 83.6852 108.211 83.7847 108.211 83.8843C108.211 84.1799 108.216 84.4782 108.226 84.7714L107.988 84.7796ZM158.571 83.2988C158.562 82.9048 158.543 82.5065 158.516 82.1146L158.754 82.0981C158.781 82.4936 158.8 82.8956 158.809 83.2933L158.571 83.2988ZM108.254 82.4012L108.016 82.3874C108.039 81.9898 108.072 81.5886 108.113 81.1949L108.35 81.2199C108.309 81.6099 108.277 82.0073 108.254 82.4012ZM158.407 80.9345C158.361 80.5446 158.306 80.1497 158.242 79.7609L158.477 79.7222C158.541 80.1148 158.597 80.5133 158.643 80.907L158.407 80.9345ZM108.502 80.0445L108.266 80.0085C108.326 79.6155 108.397 79.2191 108.475 78.8304L108.709 78.8775C108.631 79.2626 108.562 79.6553 108.502 80.0445ZM158.021 78.5962C157.939 78.2123 157.847 77.8244 157.746 77.4433L157.977 77.3825C158.078 77.7673 158.171 78.1589 158.254 78.5463L158.021 78.5962ZM108.971 77.7215L108.74 77.6634C108.837 77.2781 108.944 76.8901 109.059 76.5103L109.287 76.5793C109.173 76.9554 109.067 77.3398 108.971 77.7215ZM157.417 76.3049C157.298 75.9294 157.17 75.5521 157.034 75.1832L157.257 75.1009C157.394 75.4733 157.525 75.8542 157.644 76.2332L157.417 76.3049ZM109.658 75.4503L109.434 75.3705C109.567 74.9953 109.711 74.6184 109.862 74.2505L110.082 74.3407C109.933 74.7053 109.79 75.0786 109.658 75.4503ZM156.599 74.0836C156.447 73.7229 156.283 73.3602 156.113 73.0053L156.328 72.9023C156.5 73.2605 156.665 73.6267 156.819 73.9907L156.599 74.0836ZM110.559 73.2528L110.343 73.152C110.51 72.7926 110.689 72.4313 110.875 72.0782L111.086 72.1889C110.902 72.5388 110.725 72.8968 110.559 73.2528ZM155.576 71.9509C155.39 71.6061 155.193 71.2602 154.99 70.9226L155.194 70.7998C155.399 71.1406 155.598 71.4898 155.786 71.838L155.576 71.9509ZM111.662 71.1516L111.457 71.0309C111.658 70.6884 111.87 70.3457 112.088 70.0125L112.287 70.1426C112.072 70.4729 111.862 70.8124 111.662 71.1516ZM154.356 69.9226C154.138 69.596 153.909 69.2699 153.676 68.9532L153.867 68.8118C154.103 69.1315 154.334 69.4607 154.554 69.7904L154.356 69.9226ZM112.959 69.1646L112.765 69.0252C112.998 68.7035 113.241 68.3824 113.488 68.071L113.675 68.2193C113.43 68.5279 113.189 68.8459 112.959 69.1646ZM152.95 68.0165C152.703 67.7114 152.444 67.4079 152.182 67.1145L152.36 66.9557C152.624 67.2519 152.885 67.5582 153.135 67.8662L152.95 68.0165ZM114.435 67.3088L114.256 67.1519C114.517 66.8527 114.79 66.5559 115.064 66.2699L115.236 66.435C114.964 66.7183 114.694 67.0124 114.435 67.3088ZM151.372 66.2494C151.096 65.968 150.81 65.6899 150.522 65.4228L150.684 65.2482C150.975 65.5178 151.263 65.7986 151.542 66.0825L151.372 66.2494ZM116.077 65.6L115.914 65.427C116.202 65.1537 116.5 64.8838 116.801 64.6248L116.957 64.8053C116.659 65.0618 116.363 65.3293 116.077 65.6ZM149.635 64.6367C149.335 64.3833 149.024 64.1331 148.711 63.8929L148.856 63.7039C149.172 63.9463 149.486 64.199 149.788 64.4547L149.635 64.6367ZM117.872 64.0527L117.725 63.8651C118.037 63.6205 118.359 63.3797 118.683 63.1497L118.821 63.3439C118.5 63.5718 118.181 63.8102 117.872 64.0527ZM147.753 63.193C147.429 62.968 147.096 62.7478 146.763 62.5388L146.89 62.337C147.226 62.5481 147.562 62.7702 147.889 62.9974L147.753 63.193ZM119.802 62.6807L119.673 62.4802C120.007 62.2657 120.35 62.0564 120.693 61.8581L120.813 62.0644C120.473 62.2609 120.133 62.4683 119.802 62.6807ZM145.743 61.9318C145.4 61.7383 145.048 61.5504 144.696 61.3735L144.803 61.1606C145.159 61.3393 145.514 61.529 145.861 61.7243L145.743 61.9318ZM121.851 61.4965L121.742 61.2848C122.093 61.1031 122.455 60.927 122.815 60.7618L122.915 60.9784C122.557 61.1422 122.2 61.3165 121.851 61.4965ZM143.623 60.8651C143.263 60.7049 142.894 60.5511 142.527 60.4081L142.613 60.186C142.984 60.3304 143.356 60.4857 143.72 60.6474L143.623 60.8651ZM124.001 60.5113L123.912 60.2903C124.281 60.1418 124.658 60.0004 125.033 59.8701L125.111 60.0952C124.74 60.2242 124.367 60.3642 124.001 60.5113ZM141.41 60.0036C141.036 59.8784 140.656 59.7605 140.277 59.6533L140.342 59.4241C140.724 59.5324 141.109 59.6513 141.485 59.7777L141.41 60.0036ZM126.239 59.7321L126.172 59.5037C126.552 59.3912 126.94 59.2862 127.327 59.1916L127.384 59.423C127.001 59.5166 126.616 59.6207 126.239 59.7321ZM139.13 59.3572C138.747 59.268 138.356 59.1868 137.969 59.1158L138.012 58.8814C138.403 58.9531 138.797 59.0351 139.184 59.1252L139.13 59.3572ZM128.541 59.1685L128.495 58.9346C128.885 58.8585 129.282 58.7908 129.675 58.7332L129.709 58.969C129.32 59.0259 128.927 59.0931 128.541 59.1685ZM136.799 58.9293C136.409 58.8767 136.013 58.8326 135.621 58.7983L135.642 58.561C136.037 58.5957 136.437 58.6402 136.831 58.6933L136.799 58.9293ZM130.886 58.8246L130.862 58.5875C131.256 58.5485 131.658 58.5182 132.055 58.4976L132.068 58.7356C131.674 58.756 131.276 58.7859 130.886 58.8246ZM134.438 58.7224C134.092 58.7083 133.741 58.7012 133.394 58.7012C133.347 58.7011 133.3 58.7013 133.253 58.7015L133.251 58.4633C133.299 58.4631 133.347 58.4632 133.394 58.4629C133.744 58.4629 134.098 58.4701 134.448 58.4843L134.438 58.7224Z" fill="#FF7500" fill-opacity="0.5"/>
  <path d="M30.2582 81.4278C29.8584 81.4254 29.4553 81.4089 29.0603 81.3785L29.0785 81.141C29.4679 81.1709 29.8653 81.1872 30.2596 81.1895L30.2582 81.4278ZM31.457 81.3924L31.4416 81.1547C31.833 81.1292 32.2287 81.0894 32.6177 81.0361L32.65 81.2722C32.2555 81.3261 31.8542 81.3666 31.457 81.3924ZM27.8687 81.2445C27.4739 81.1857 27.0772 81.112 26.6896 81.0252L26.7417 80.7928C27.1238 80.8783 27.5147 80.9509 27.9038 81.0089L27.8687 81.2445ZM33.8315 81.0666L33.7822 80.8336C34.166 80.7525 34.5519 80.6564 34.9292 80.5477L34.9951 80.7768C34.6123 80.8869 34.2208 80.9844 33.8315 81.0666ZM25.5294 80.7216C25.1475 80.6067 24.765 80.4765 24.3926 80.3344L24.4775 80.1118C24.8446 80.2518 25.2217 80.3802 25.598 80.4934L25.5294 80.7216ZM36.135 80.4034L36.0527 80.1797C36.4203 80.0446 36.788 79.894 37.1455 79.7324L37.2436 79.9495C36.8809 80.1135 36.5079 80.2663 36.135 80.4034ZM23.287 79.8662C22.9261 79.6978 22.5665 79.5139 22.2182 79.3198L22.3343 79.1116C22.6777 79.3031 23.032 79.4843 23.3877 79.6502L23.287 79.8662ZM38.3169 79.417L38.2035 79.2075C38.5479 79.0209 38.8905 78.8191 39.2215 78.6077L39.3498 78.8085C39.0139 79.023 38.6664 79.2277 38.3169 79.417ZM21.1916 78.6981C20.8587 78.4799 20.5292 78.2466 20.2124 78.0048L20.357 77.8154C20.6694 78.0538 20.9942 78.2837 21.3224 78.4989L21.1916 78.6981ZM40.3364 78.1277L40.1942 77.9365C40.5091 77.7023 40.8196 77.4536 41.1168 77.1975L41.2724 77.3781C40.9708 77.6378 40.6559 77.89 40.3364 78.1277ZM19.2853 77.2434C18.9871 76.9801 18.6942 76.7025 18.4149 76.4182L18.5849 76.2512C18.8602 76.5315 19.1489 76.8053 19.4429 77.0648L19.2853 77.2434ZM42.1526 76.5636L41.9846 76.3946C42.2631 76.1178 42.5351 75.8275 42.7931 75.5317L42.9727 75.6883C42.7111 75.9883 42.4351 76.2829 42.1526 76.5636ZM17.6056 75.5331C17.3474 75.2296 17.097 74.9133 16.8615 74.5928L17.0535 74.4516C17.2857 74.7676 17.5325 75.0794 17.787 75.3786L17.6056 75.5331ZM43.7286 74.7567L43.5384 74.6133C43.7748 74.2995 44.0029 73.9734 44.2161 73.6439L44.4162 73.7733C44.1998 74.1076 43.9685 74.4385 43.7286 74.7567ZM16.1866 73.6021C15.9744 73.2654 15.7718 72.9168 15.5843 72.5658L15.7945 72.4536C15.9792 72.7994 16.1791 73.1431 16.3882 73.4751L16.1866 73.6021ZM45.0316 72.7431L44.8228 72.6284C45.0122 72.2838 45.1913 71.9283 45.3551 71.5717L45.5716 71.6712C45.4055 72.033 45.2238 72.3936 45.0316 72.7431ZM15.0581 71.4893C14.8964 71.1257 14.7459 70.7518 14.6108 70.378L14.835 70.297C14.9681 70.6655 15.1164 71.0339 15.2758 71.3924L15.0581 71.4893ZM46.0333 70.5627L45.8102 70.4791C45.9479 70.1114 46.0739 69.7342 46.1846 69.3578L46.4132 69.4251C46.3008 69.8069 46.173 70.1896 46.0333 70.5627ZM14.2444 69.2361C14.1365 68.8527 14.0413 68.4606 13.9613 68.0706L14.1947 68.0228C14.2734 68.4071 14.3673 68.7935 14.4737 69.1715L14.2444 69.2361ZM46.71 68.2631L46.4771 68.2125C46.5604 67.8293 46.6309 67.4379 46.6865 67.049L46.9224 67.0829C46.8659 67.4772 46.7944 67.8744 46.71 68.2631ZM13.763 66.888C13.7113 66.4938 13.6732 66.0921 13.6497 65.6943L13.8876 65.6803C13.9108 66.0726 13.9483 66.4685 13.9992 66.8571L13.763 66.888ZM47.0496 65.8905L46.8119 65.8738C46.8395 65.483 46.8535 65.0855 46.8535 64.6923H47.0918C47.0918 65.091 47.0776 65.4941 47.0496 65.8905ZM13.8595 64.4981L13.6212 64.4953C13.6258 64.0965 13.6448 63.6936 13.6774 63.2976L13.9148 63.3172C13.8827 63.7077 13.8641 64.1049 13.8595 64.4981ZM46.8348 63.8987C46.8162 63.5056 46.7833 63.1093 46.737 62.7206L46.9735 62.6924C47.0205 63.0867 47.0539 63.4887 47.0728 63.8874L46.8348 63.8987ZM14.0541 62.1433L13.8186 62.1068C13.8797 61.713 13.9559 61.3168 14.0449 60.9292L14.2771 60.9826C14.1894 61.3647 14.1144 61.7552 14.0541 62.1433ZM46.5551 61.5526C46.4809 61.1673 46.3916 60.7797 46.2899 60.4007L46.5199 60.3389C46.6232 60.7235 46.7138 61.1168 46.7891 61.5076L46.5551 61.5526ZM14.5833 59.8408L14.3555 59.7708C14.4726 59.3895 14.6052 59.0078 14.7494 58.6363L14.9715 58.7226C14.8294 59.0887 14.6987 59.465 14.5833 59.8408ZM45.9422 59.2709C45.8134 58.9007 45.6695 58.5304 45.5144 58.1705L45.7332 58.0762C45.8906 58.4415 46.0366 58.817 46.1673 59.1927L45.9422 59.2709ZM15.4396 57.6355L15.2243 57.5335C15.3948 57.1737 15.5807 56.8152 15.777 56.4679L15.9844 56.5852C15.791 56.9275 15.6076 57.2808 15.4396 57.6355ZM45.0083 57.1033C44.8276 56.755 44.6319 56.409 44.4267 56.0748L44.6298 55.9501C44.8379 56.2891 45.0364 56.6402 45.2197 56.9935L45.0083 57.1033ZM16.6031 55.577L16.4046 55.4452C16.6248 55.1135 16.8601 54.7854 17.1037 54.47L17.2923 54.6156C17.0522 54.9266 16.8202 55.2501 16.6031 55.577ZM43.7731 55.0905C43.5444 54.7716 43.3012 54.4569 43.0505 54.1551L43.2337 54.0028C43.4881 54.3089 43.7348 54.6282 43.9667 54.9517L43.7731 55.0905ZM18.0482 53.7062L17.8705 53.5475C18.1358 53.2505 18.4151 52.9593 18.7009 52.6819L18.8668 52.8528C18.5852 53.1263 18.3097 53.4134 18.0482 53.7062ZM42.2629 53.2732C41.9911 52.9898 41.7056 52.7127 41.4145 52.4495L41.5743 52.2728C41.8697 52.5398 42.1592 52.8208 42.4349 53.1083L42.2629 53.2732ZM19.744 52.0602L19.5907 51.8778C19.8952 51.6217 20.2129 51.3733 20.5353 51.1392L20.6753 51.332C20.3575 51.5627 20.0443 51.8078 19.744 52.0602ZM40.5094 51.6884C40.1999 51.4464 39.8779 51.2126 39.5522 50.9934L39.6852 50.7958C40.0155 51.018 40.3422 51.2551 40.6562 51.5006L40.5094 51.6884ZM21.6558 50.6726L21.53 50.4703C21.868 50.2601 22.2178 50.0595 22.5699 49.8742L22.6809 50.0851C22.3339 50.2678 21.9889 50.4654 21.6558 50.6726ZM38.5477 50.3689C38.2067 50.1735 37.8545 49.988 37.5007 49.8178L37.604 49.6031C37.963 49.7759 38.3203 49.9639 38.6661 50.1622L38.5477 50.3689ZM23.745 49.5727L23.6494 49.3544C24.0137 49.195 24.3884 49.0467 24.7633 48.9138L24.8429 49.1384C24.4734 49.2693 24.104 49.4154 23.745 49.5727ZM36.4164 49.3435C36.0511 49.1991 35.6757 49.0661 35.3006 48.9485L35.3718 48.7211C35.7524 48.8405 36.1333 48.9753 36.5039 49.1218L36.4164 49.3435ZM25.9706 48.7839L25.9074 48.5542C26.2908 48.4487 26.6835 48.3559 27.0745 48.278L27.1209 48.5117C26.7357 48.5883 26.3486 48.6799 25.9706 48.7839ZM34.1607 48.6356C33.7788 48.5454 33.3886 48.4681 33.0011 48.4056L33.039 48.1704C33.4321 48.2338 33.8279 48.3122 34.2153 48.4036L34.1607 48.6356ZM28.2879 48.3231L28.2582 48.0867C28.6524 48.0374 29.0543 48.0017 29.4525 47.9804L29.4652 48.2183C29.0726 48.2393 28.6765 48.2745 28.2879 48.3231ZM31.8281 48.2595C31.4378 48.225 31.0407 48.204 30.6477 48.1973L30.6518 47.959C31.0505 47.9659 31.4533 47.9872 31.8492 48.0222L31.8281 48.2595Z" fill="#FF7500" fill-opacity="0.5"/>
  <path d="M97.3705 24.5726C95.1535 24.5726 93.3498 22.769 93.3498 20.552C93.3498 18.335 95.1535 16.5312 97.3705 16.5312C99.5875 16.5312 101.391 18.3349 101.391 20.552C101.391 22.769 99.5874 24.5726 97.3705 24.5726ZM97.3705 16.71C95.252 16.71 93.5285 18.4334 93.5285 20.552C93.5285 22.6704 95.252 24.3939 97.3705 24.3939C99.489 24.3939 101.213 22.6704 101.213 20.552C101.212 18.4334 99.4889 16.71 97.3705 16.71Z" fill="#FF7500" fill-opacity="0.5"/>
  <path d="M139.2 39.0059V111.458C139.2 112.966 137.978 114.189 136.472 114.189H31.1837C29.6754 114.189 28.453 112.966 28.453 111.458V39.0059C28.453 37.4976 29.6754 36.2753 31.1837 36.2753H136.472C137.978 36.2753 139.2 37.4976 139.2 39.0059Z" fill="white"/>
  <path d="M136.472 114.308H31.1837C29.6124 114.308 28.334 113.029 28.334 111.458V39.006C28.334 37.4346 29.6124 36.1562 31.1837 36.1562H136.472C138.042 36.1562 139.32 37.4346 139.32 39.006V111.458C139.32 113.029 138.042 114.308 136.472 114.308ZM31.1837 36.3945C29.7438 36.3945 28.5723 37.5661 28.5723 39.006V111.458C28.5723 112.898 29.7438 114.069 31.1837 114.069H136.472C137.911 114.069 139.081 112.898 139.081 111.458V39.006C139.081 37.5661 137.911 36.3945 136.472 36.3945H31.1837Z" fill="#FF7500" fill-opacity="0.5"/>
  <path d="M139.2 39.0059V43.3044H28.453V39.0059C28.453 37.4976 29.6754 36.2753 31.1837 36.2753H136.472C137.978 36.2753 139.2 37.4976 139.2 39.0059Z" fill="white"/>
  <path d="M139.32 43.4236H28.334V39.006C28.334 37.4346 29.6124 36.1562 31.1837 36.1562H136.472C138.042 36.1562 139.32 37.4346 139.32 39.006V43.4236ZM28.5723 43.1853H139.081V39.006C139.081 37.5661 137.911 36.3945 136.472 36.3945H31.1837C29.7438 36.3945 28.5723 37.5661 28.5723 39.006V43.1853Z" fill="#FF7500" fill-opacity="0.5"/>
  <path d="M34.6008 41.0611C35.3027 41.0611 35.8716 40.4921 35.8716 39.7903C35.8716 39.0885 35.3027 38.5195 34.6008 38.5195C33.899 38.5195 33.3301 39.0885 33.3301 39.7903C33.3301 40.4921 33.899 41.0611 34.6008 41.0611Z" fill="#039D55"/>
  <path d="M39.4466 38.5195C38.7459 38.5195 38.1758 39.0896 38.1758 39.7903C38.1758 40.491 38.7458 41.0612 39.4466 41.0612C40.1475 41.0612 40.7175 40.4911 40.7175 39.7903C40.7175 39.0896 40.1474 38.5195 39.4466 38.5195Z" fill="#039D55"/>
  <path d="M44.2903 41.0613C43.5896 41.0613 43.0196 40.4912 43.0196 39.7905C43.0196 39.0898 43.5896 38.5197 44.2903 38.5197C44.991 38.5197 45.5611 39.0898 45.5611 39.7905C45.5612 40.4912 44.9911 41.0613 44.2903 41.0613ZM44.2903 38.758C43.7209 38.758 43.2578 39.2212 43.2578 39.7905C43.2578 40.3598 43.721 40.823 44.2903 40.823C44.8596 40.823 45.3228 40.3598 45.3228 39.7905C45.3229 39.2212 44.8597 38.758 44.2903 38.758Z" fill="#FF7500" fill-opacity="0.5"/>
  <path d="M75.559 41.2046H51.9402C51.1601 41.2046 50.5254 40.5699 50.5254 39.7898C50.5254 39.0097 51.1601 38.375 51.9402 38.375H75.5591C76.3392 38.375 76.9739 39.0097 76.9739 39.7898C76.9739 40.5699 76.3391 41.2046 75.559 41.2046ZM51.9402 38.6133C51.2915 38.6133 50.7637 39.1411 50.7637 39.7898C50.7637 40.4385 51.2915 40.9663 51.9402 40.9663H75.5591C76.2078 40.9663 76.7356 40.4385 76.7356 39.7898C76.7356 39.1411 76.2078 38.6133 75.5591 38.6133H51.9402Z" fill="#FF7500" fill-opacity="0.5"/>
  <path d="M105.594 77.0223C105.594 88.4308 96.3462 97.6806 84.9377 97.6806C73.5291 97.6806 64.2793 88.4308 64.2793 77.0223C64.2793 66.319 72.4211 57.5172 82.848 56.4688L83.5366 63.2476C76.5504 63.9506 71.0963 69.8502 71.0963 77.0223C71.0963 84.6685 77.2938 90.866 84.9377 90.866C92.5815 90.866 98.7766 84.6685 98.7766 77.0223C98.7766 75.6879 98.5884 74.3989 98.2357 73.1789L104.786 71.287C105.312 73.1074 105.594 75.0327 105.594 77.0223Z" fill="#FF7500" fill-opacity="0.5"/>
  <path d="M84.937 93.7021C94.1487 93.7021 101.616 86.2346 101.616 77.0229C101.616 67.8113 94.1487 60.3438 84.937 60.3438C75.7253 60.3438 68.2578 67.8113 68.2578 77.0229C68.2578 86.2346 75.7253 93.7021 84.937 93.7021Z" fill="white"/>
  <path opacity="0.5" d="M84.937 93.7021C94.1487 93.7021 101.616 86.2346 101.616 77.0229C101.616 67.8113 94.1487 60.3438 84.937 60.3438C75.7253 60.3438 68.2578 67.8113 68.2578 77.0229C68.2578 86.2346 75.7253 93.7021 84.937 93.7021Z" fill="#DAECE4"/>
  <path d="M84.937 88.839C91.4616 88.839 96.7509 83.5484 96.7509 77.022C96.7509 70.4957 91.4616 65.2051 84.937 65.2051C78.4123 65.2051 73.123 70.4957 73.123 77.022C73.123 83.5484 78.4123 88.839 84.937 88.839Z" fill="white"/>
  <path d="M86.2864 82.8346V84.631H84.0042V82.9156C82.3861 82.8188 80.8168 82.3812 79.8457 81.7828L81.0751 78.9985C82.1437 79.6298 83.5667 80.0344 84.8132 80.0344C85.8976 80.0344 86.2863 79.8077 86.2863 79.4189C86.2863 77.9948 80.0235 79.1441 80.0235 74.9192C80.0235 73.0899 81.3504 71.5524 84.0041 71.1801V69.4159H86.2863V71.1477C87.4827 71.2611 88.6488 71.5688 89.5712 72.0868L88.4223 74.8546C87.3049 74.2879 86.2534 74.0131 85.2665 74.0131C84.1491 74.0131 83.7934 74.3367 83.7934 74.7248C83.7934 76.085 90.0562 74.9516 90.0562 79.1275C90.0562 80.8761 88.7939 82.3977 86.2864 82.8346Z" fill="#FF7500" fill-opacity="0.5"/>
  <path d="M158.477 22.1444H113.537V49.6233H158.477V22.1444Z" fill="white"/>
  <path d="M158.596 49.7425H113.418V22.0254H158.596V49.7425ZM113.656 49.5042H158.358V22.2637H113.656V49.5042Z" fill="#FF7500" fill-opacity="0.5"/>
  <path d="M121.78 40.8769H119.193V45.6268H121.78V40.8769Z" fill="#DAECE4"/>
  <path d="M126.954 38.7051H124.367V45.6254H126.954V38.7051Z" fill="#DAECE4"/>
  <path d="M132.126 40.4805H129.539V45.6265H132.126V40.4805Z" fill="#DAECE4"/>
  <path d="M137.299 36.8594H134.713V45.6264H137.299V36.8594Z" fill="#DAECE4"/>
  <path d="M142.473 34.543H139.887V45.6261H142.473V34.543Z" fill="#DAECE4"/>
  <path d="M147.647 31.2344H145.061V45.6255H147.647V31.2344Z" fill="#DAECE4"/>
  <path d="M152.817 26.1406H150.23V45.6259H152.817V26.1406Z" fill="#DAECE4"/>
  <path d="M121.249 28.4512H119.193V30.7786H121.249V28.4512Z" fill="#DAECE4"/>
  <path d="M138.347 29.5293H124.426V30.1258H138.347V29.5293Z" fill="#DAECE4"/>
  <path d="M118.037 63.5514L115.191 55.6895C111.976 56.8539 109.678 59.934 109.678 63.5514C109.678 68.1684 113.421 71.9112 118.037 71.9112C122.654 71.9112 126.397 68.1683 126.397 63.5514C126.397 62.1621 126.056 60.8532 125.457 59.7004L118.037 63.5514Z" fill="#E8EBE9"/>
  <path d="M126.568 56.7216C125.175 54.0433 122.377 52.2129 119.149 52.2129C118.15 52.2129 117.191 52.3889 116.303 52.7107L119.149 60.5727L126.568 56.7216Z" fill="#FF7500" fill-opacity="0.5"/>
  <path d="M129.872 90.3438H110.096V109.167H129.872V90.3438Z" fill="#E8EBE9"/>
  <path d="M124.273 95.3477H113.193V96.1425H124.273V95.3477Z" fill="white"/>
  <path d="M124.273 97.7285H113.193V98.5234H124.273V97.7285Z" fill="white"/>
  <path d="M54.3809 54.3613H37.1836V83.4308H54.3809V54.3613Z" fill="#E8EBE9"/>
  <path d="M51.083 58.5723H39.8047V68.8974H51.083V58.5723Z" fill="white"/>
  <path d="M39.8875 58.4844L39.7266 58.6602L51.0051 68.9861L51.166 68.8104L39.8875 58.4844Z" fill="#E8EBE9"/>
  <path d="M50.9977 58.4844L39.7207 68.8103L39.8816 68.986L51.1586 58.6601L50.9977 58.4844Z" fill="#E8EBE9"/>
  <path d="M45.4507 66.2342H6.11523V92.1516H45.4507V66.2342Z" fill="white"/>
  <path d="M45.5629 92.2638H6V66.1189H45.5629V92.2638ZM6.2275 92.0364H45.3354V66.3464H6.2275V92.0364Z" fill="#FF7500" fill-opacity="0.5"/>
  <path d="M10.2598 85.8939L12.8014 81.1284L18.0434 86.0528L21.538 75.8864L28.0509 83.0346L32.3399 81.2873L40.1234 71.1209" fill="white"/>
  <path d="M18.0958 86.2658L12.8329 81.3219L10.3645 85.95L10.1543 85.8379L12.7691 80.9351L17.9903 85.8398L21.4904 75.6577L28.0826 82.893L32.2645 81.1893L40.0285 71.0486L40.2177 71.1934L32.4144 81.3854L28.0185 83.1764L27.9625 83.1149L21.5851 76.1153L18.0958 86.2658Z" fill="#FF7500" fill-opacity="0.5"/>
  <path d="M12.8193 81.7634C13.1812 81.7634 13.4746 81.4701 13.4746 81.1082C13.4746 80.7463 13.1812 80.4529 12.8193 80.4529C12.4574 80.4529 12.1641 80.7463 12.1641 81.1082C12.1641 81.4701 12.4574 81.7634 12.8193 81.7634Z" fill="#FF7500" fill-opacity="0.5"/>
  <path d="M18.0049 86.5896C18.3667 86.5896 18.6601 86.2962 18.6601 85.9343C18.6601 85.5725 18.3667 85.2791 18.0049 85.2791C17.643 85.2791 17.3496 85.5725 17.3496 85.9343C17.3496 86.2962 17.643 86.5896 18.0049 86.5896Z" fill="#FF7500" fill-opacity="0.5"/>
  <path d="M21.5771 76.5818C21.939 76.5818 22.2324 76.2884 22.2324 75.9265C22.2324 75.5646 21.939 75.2713 21.5771 75.2713C21.2152 75.2713 20.9219 75.5646 20.9219 75.9265C20.9219 76.2884 21.2152 76.5818 21.5771 76.5818Z" fill="#FF7500" fill-opacity="0.5"/>
  <path d="M34.1206 70.365H17.4414V70.6033H34.1206V70.365Z" fill="#FF7500" fill-opacity="0.5"/>
  <path d="M99.6358 128.879C98.9308 124.259 99.8999 119.401 102.324 115.404C104.748 111.407 108.609 108.303 113.032 106.793C110.527 108.546 108.998 111.38 107.931 114.246C106.864 117.111 106.164 120.119 104.848 122.878C103.531 125.638 101.456 128.216 98.5781 129.249L99.6358 128.879Z" fill="#FF7500" fill-opacity="0.5"/>
  <path d="M98.9435 128.919C98.8435 123.579 97.8062 118.257 95.8933 113.27C95.214 111.5 94.3994 109.732 93.075 108.374C91.7505 107.017 89.8243 106.122 87.957 106.454C90.2826 108.195 91.4871 111.058 92.1654 113.882C92.8437 116.707 93.1051 119.637 94.0603 122.38C95.0156 125.124 96.8426 127.768 99.5768 128.748L98.9435 128.919Z" fill="#FF7500" fill-opacity="0.5"/>
  <path d="M98.5797 129.269C97.2502 125.689 95.805 122.018 93.1314 119.291C90.4578 116.564 86.2221 115.003 82.7207 116.528C85.5562 117.171 88.1546 118.813 89.9529 121.097C91.2717 122.773 92.1587 124.759 93.515 126.405C94.8713 128.05 96.9402 129.375 99.0361 128.983L98.5797 129.269Z" fill="#DAECE4"/>
  <path d="M98.155 129.024C97.6102 125.095 97.0652 121.102 97.6393 117.177C98.2133 113.252 100.069 109.333 103.395 107.17C101.554 108.975 100.94 111.709 100.939 114.287C100.938 116.865 101.46 119.419 101.504 121.997C101.548 124.575 101.036 127.313 99.2925 129.212L98.155 129.024Z" fill="#DAECE4"/>
  <path d="M99.9941 128.453C101.269 125.206 102.627 121.834 105.223 119.503C106.889 118.007 109.012 117.025 111.231 116.725C109.675 117.966 108.701 119.786 107.892 121.605C107.084 123.425 106.387 125.32 105.217 126.93C104.046 128.541 102.288 129.866 100.299 129.951L99.9941 128.453Z" fill="#DAECE4"/>
  <path d="M106.466 138.333H92.1522L89.9453 127.322H108.673L106.466 138.333Z" fill="white"/>
  <path d="M106.565 138.453H92.0553L89.8008 127.203H108.819L106.565 138.453ZM92.2505 138.214H106.369L108.528 127.441H90.0915L92.2505 138.214Z" fill="#FF7500" fill-opacity="0.5"/>
  <path d="M132.091 131.713V138.334H123.504L127.435 135.127L127.642 131.092L132.091 131.713Z" fill="#DAECE4"/>
  <path d="M127.522 135.036L127.357 135.209L128.997 136.768L129.161 136.596L127.522 135.036Z" fill="#1B1B43"/>
  <path d="M131.259 133.469H128.32V133.707H131.259V133.469Z" fill="#1B1B43"/>
  <path d="M142.126 132.023L142.437 138.334H133.85L137.471 135.23V131.402L142.126 132.023Z" fill="#DAECE4"/>
  <path d="M137.548 135.128L137.391 135.307L138.724 136.484L138.882 136.306L137.548 135.128Z" fill="#1B1B43"/>
  <path d="M141.346 133.588H138.447V133.826H141.346V133.588Z" fill="#1B1B43"/>
  <path d="M132.957 93.652C133.105 106.846 134.198 119.83 136.289 132.592H143.525C142.02 122.832 141.339 110.98 142.181 95.2657L136.956 90.9863L132.957 93.652Z" fill="#FE5B52"/>
  <path d="M127.236 95.399L123.962 109.96C123.175 113.459 123.12 117.083 123.801 120.604L126.101 132.498H133.337L131.147 116.884L136.383 93.082L127.236 95.399Z" fill="#FE5B52"/>
  <path d="M133.444 109.353C133.426 109.053 133.014 102.356 132.971 101.507L131.08 100.82L131.161 100.596L133.206 101.339V101.423C133.206 101.569 133.517 106.664 133.682 109.338L133.444 109.353Z" fill="#BE443D"/>
  <path d="M149.111 62.5218L149.498 61.5985C149.498 61.5985 148.098 58.6498 148.545 58.2626C148.992 57.8755 149.707 58.9774 149.707 58.9774C149.707 58.9774 149.498 55.4033 150.183 55.3735C150.761 55.3483 150.719 56.3862 150.779 57.9349C150.779 57.9349 151.136 57.4584 151.794 57.9508C152.089 57.4584 152.715 57.7861 152.894 58.0839C153.102 57.8456 153.966 57.9052 153.847 58.9179C153.696 60.2022 153.102 62.5814 153.102 62.5814L151.196 64.16L149.111 62.5218Z" fill="#FFBC96"/>
  <path d="M133.803 74.8541L136.701 74.8311C141.785 74.3776 145.756 70.2475 145.756 70.2475L149.112 62.5234L153.103 62.583L150.76 71.6608C150.424 72.9645 149.699 74.1352 148.682 75.0176L140.355 82.2406L133.803 74.8541Z" fill="#334257"/>
  <path d="M125.855 81.4244L127.235 95.3958L142.18 95.2637L141.663 78.4257L133.8 74.8516L128.36 77.1549L125.855 81.4244Z" fill="#334257"/>
  <path d="M116.602 82.7828C116.357 82.5659 116.051 82.4341 115.725 82.4071C114.074 82.2694 108.909 81.8708 108.959 82.2712C109.019 82.7478 112.95 84.5348 112.95 84.5348C113.791 85.481 114.632 86.4272 115.473 87.3735L117.783 83.8312L116.602 82.7828Z" fill="#FFBC96"/>
  <path d="M127.866 76.1966C126.801 76.3826 125.886 77.059 125.396 78.0222L120.992 86.6784L117.783 83.8301L115.473 87.3724C115.754 87.6888 116.035 88.0051 116.316 88.3214C117.563 89.7255 119.018 91.6121 120.966 92.021C121.959 92.2295 122.883 91.8171 123.595 91.1343C124.116 90.6336 124.582 90.0151 124.954 89.395L126.711 86.4997L132.31 75.4199L127.866 76.1966Z" fill="#334257"/>
  <path d="M125.97 81.4203L125.732 81.4434L126.569 90.0407L126.806 90.0176L125.97 81.4203Z" fill="#DAECE4"/>
  <path d="M141.754 80.9883L140.354 82.2392L141.843 84.7114L141.754 80.9883Z" fill="#1B1B43"/>
  <path d="M151.295 59.7127C150.733 59.7127 150.69 58.9761 150.689 57.9355H150.868C150.868 59.1605 150.968 59.534 151.295 59.534C151.361 59.534 151.417 59.5079 151.467 59.4542C151.626 59.2834 151.688 58.8844 151.707 58.5261C151.694 58.267 151.701 58.0415 151.704 57.9478L151.883 57.9452C151.884 57.9672 151.9 58.208 151.887 58.5046C151.912 58.9899 151.993 59.4695 152.155 59.518C152.246 59.5451 152.324 59.5335 152.395 59.4826C152.588 59.3437 152.696 58.9506 152.752 58.5995C152.757 58.4487 152.773 58.2736 152.805 58.0707L152.983 58.0873C152.982 58.1074 152.975 58.3111 152.938 58.5675C152.925 58.9391 152.967 59.299 153.117 59.3622C153.228 59.4091 153.32 59.4087 153.398 59.3613C153.603 59.2363 153.677 58.8153 153.688 58.6635L153.866 58.677C153.864 58.7029 153.815 59.3159 153.491 59.5138C153.363 59.5924 153.214 59.5969 153.048 59.527C153.006 59.5095 152.875 59.4333 152.801 59.1544C152.731 59.3542 152.633 59.5307 152.499 59.6275C152.382 59.7118 152.249 59.7326 152.104 59.6891C151.947 59.6419 151.849 59.4413 151.79 59.1907C151.746 59.3463 151.684 59.4832 151.597 59.5761C151.513 59.6668 151.411 59.7127 151.295 59.7127Z" fill="#D28572"/>
  <path d="M132.543 78.2413C131.273 78.3437 130.163 77.3978 130.06 76.1302L130.034 75.8085L129.672 71.3146L132.472 71.0907L134.268 70.9453L134.654 75.7584C134.757 77.0284 133.811 78.1388 132.543 78.2413Z" fill="#FFBC96"/>
  <path d="M133.368 72.6072C132.495 74.1441 131.247 75.2497 130.034 75.8096L129.672 71.3158L132.472 71.0918L133.368 72.6072Z" fill="#1B1B43"/>
  <path d="M134.281 67.9013L133.726 72.5882C133.726 72.5882 131.939 74.2966 129.318 74.2156C128.362 74.187 127.8 73.2816 127.471 72.1307C127.335 71.6494 127.24 71.1276 127.173 70.6058C126.954 68.8807 127.054 67.1865 127.054 67.1865L131.105 65.8379L134.281 67.9013Z" fill="#FFBC96"/>
  <path d="M133.665 69.8275C133.243 68.324 132.485 67.5677 131.461 67.4051C128.204 69.1723 126.09 68.1199 124.551 66.1541C128.323 66.8888 129.972 61.5276 133.585 65.1017C136.266 65.9158 136.217 68.4773 134.698 70.5622L133.665 69.8275Z" fill="#1B1B43"/>
  <path d="M135.339 70.4088C135.477 69.7013 135.092 69.0307 134.478 68.9108C133.865 68.791 133.256 69.2674 133.117 69.9749C132.979 70.6823 133.364 71.353 133.978 71.4728C134.591 71.5927 135.201 71.1163 135.339 70.4088Z" fill="#FFBC96"/>
  <path d="M134.655 69.7004C134.468 69.732 134.347 69.8732 134.257 70.0339C134.168 70.1973 134.11 70.3786 134.074 70.5746L134.005 70.5788C133.975 70.4741 133.975 70.3626 133.993 70.2555C134.01 70.1479 134.047 70.0432 134.102 69.9466C134.157 69.8509 134.23 69.7608 134.328 69.6972C134.423 69.6329 134.55 69.6 134.66 69.6309L134.655 69.7004Z" fill="#1B1B43"/>
  <path d="M128.025 70.0158C128.025 70.2187 127.927 70.3831 127.806 70.3831C127.686 70.3831 127.588 70.2186 127.588 70.0158C127.588 69.8129 127.686 69.6484 127.806 69.6484C127.927 69.6484 128.025 69.8128 128.025 70.0158Z" fill="#1B1B43"/>
  <path d="M129.831 69.8669C129.831 70.0867 129.725 70.2649 129.594 70.2649C129.463 70.2649 129.357 70.0866 129.357 69.8669C129.357 69.647 129.463 69.4688 129.594 69.4688C129.725 69.4688 129.831 69.647 129.831 69.8669Z" fill="#1B1B43"/>
  <path d="M128.522 70.3153C128.522 70.386 128.494 70.455 128.46 70.5146C128.424 70.5736 128.381 70.6244 128.339 70.671C128.254 70.7636 128.176 70.8477 128.157 70.9355C128.134 71.0255 128.169 71.114 128.238 71.2029C128.307 71.2904 128.401 71.3695 128.491 71.4574L128.453 71.5156C128.336 71.4663 128.221 71.4048 128.122 71.3084C128.072 71.2601 128.028 71.2005 127.999 71.1281C127.971 71.0548 127.964 70.971 127.984 70.8945C128.004 70.8172 128.044 70.7498 128.09 70.6976C128.136 70.6448 128.185 70.6012 128.232 70.5617C128.325 70.4808 128.414 70.4115 128.452 70.3047L128.522 70.3153Z" fill="#1B1B43"/>
  <path d="M128.693 72.3017C128.945 72.2457 129.178 72.166 129.387 72.0362C129.491 71.9723 129.589 71.8981 129.684 71.8167C129.778 71.7353 129.869 71.6467 129.963 71.5566L130.019 71.5975C129.903 71.8365 129.715 72.0464 129.479 72.1883C129.244 72.3304 128.964 72.398 128.697 72.3714L128.693 72.3017Z" fill="#1B1B43"/>
  <path d="M129.307 68.8813C129.256 69.1502 130.101 69.2368 130.253 69.2635C130.378 69.2854 130.556 69.2996 130.583 69.1098C130.615 68.8743 130.359 68.8494 130.215 68.8181C130.076 68.788 129.355 68.6272 129.307 68.8813Z" fill="#1B1B43"/>
  <path d="M128.131 69.0466C128.127 69.3066 127.455 69.3326 127.332 69.3478C127.231 69.3603 127.09 69.3619 127.1 69.1793C127.113 68.9526 127.317 68.946 127.435 68.9257C127.548 68.9063 128.135 68.8011 128.131 69.0466Z" fill="#1B1B43"/>
  <path opacity="0.2" d="M131.288 71.5303C131.765 71.5303 132.151 71.1436 132.151 70.6665C132.151 70.1895 131.765 69.8027 131.288 69.8027C130.811 69.8027 130.424 70.1895 130.424 70.6665C130.424 71.1436 130.811 71.5303 131.288 71.5303Z" fill="#FE5B52"/>
  <path opacity="0.2" d="M127.818 71.4418C127.818 71.7254 127.682 71.9755 127.47 72.1304C127.334 71.6491 127.239 71.1273 127.172 70.6055C127.544 70.7032 127.818 71.0415 127.818 71.4418Z" fill="#FE5B52"/>
  <path d="M66.2556 99.2773H49.6797V100.393H66.2556V99.2773Z" fill="#FF7500" fill-opacity="0.5"/>
  <path d="M66.2542 99.2798H52.2556L57.5572 86.3534H71.5558L66.2542 99.2798Z" fill="white"/>
  <path d="M66.3343 99.399H52.0781L57.4774 86.2344H71.7335L66.3343 99.399ZM52.4334 99.1607H66.1745L71.3784 86.4726H57.6373L52.4334 99.1607Z" fill="#FF7500" fill-opacity="0.5"/>
  <path d="M65.0462 98.1899H54.0449L58.2114 88.0312H69.2127L65.0462 98.1899Z" fill="#E8EBE9"/>
  <path d="M60.6816 100.746H60.4434V138.391H60.6816V100.746Z" fill="#1B1B43"/>
  <path d="M73.9309 100.391H47.1914V102.517H73.9309V100.391Z" fill="#DAECE4"/>
  <path d="M25.6152 116.559H25.377V138.391H25.6152V116.559Z" fill="#1B1B43"/>
  <path d="M32.0354 117.572H18.957C19.2347 116.244 20.4053 115.293 21.7617 115.293H29.2307C30.5872 115.293 31.7578 116.244 32.0354 117.572Z" fill="#DAECE4"/>
  <path d="M28.8914 138.327H22.1016C22.1016 137.501 22.7708 136.832 23.5964 136.832H27.3967C28.2222 136.832 28.8914 137.501 28.8914 138.327Z" fill="#DAECE4"/>
  <path d="M35.5892 84.1641C35.9238 84.6449 36.4033 85.3258 36.4564 85.9209C36.5334 86.786 35.1491 86.1796 35.1328 86.2544C35.1327 86.2542 35.5892 84.1641 35.5892 84.1641Z" fill="#D28572"/>
  <path d="M33.4746 85.1816H29.0976V91.5962H33.4746V85.1816Z" fill="#FFBC96"/>
  <path d="M33.475 86.2812V90.8608C32.0957 89.9944 30.9035 88.7075 29.873 87.2222L33.475 86.2812Z" fill="#1B1B43"/>
  <path d="M35.9339 84.5548C35.7976 86.7707 34.9451 89.2772 32.6184 88.6588C30.7908 88.1731 28.7793 86.6343 28.7793 84.4142C28.7793 82.1942 30.3158 80.3945 32.2112 80.3945C33.3958 80.3945 34.8873 80.9694 35.5892 82.0799C36.0104 82.7461 35.9934 83.5885 35.9339 84.5548Z" fill="#FFBC96"/>
  <path d="M32.0604 83.9109C32.68 82.2675 34.0984 82.106 34.0984 82.106C34.0984 82.106 37.3824 85.3542 37.179 81.9981C37.0174 79.331 34.4107 79.5831 34.4107 79.5831C33.1373 77.9253 31.095 78.574 30.3502 79.5351C29.6053 80.4962 29.8696 79.9436 28.1156 80.5682C26.3617 81.1929 27.2987 83.86 26.9864 84.0521C24.6558 84.0521 25.0883 86.3587 25.0883 86.3587L30.6056 88.1583L31.9346 84.5304L32.0604 83.9109Z" fill="#1B1B43"/>
  <path d="M32.6347 84.0979C32.9758 84.6889 32.8836 85.3807 32.4286 85.6434C31.9737 85.9061 31.3284 85.64 30.9872 85.049C30.6461 84.4581 30.7382 83.7663 31.1932 83.5036C31.6482 83.2409 32.2936 83.507 32.6347 84.0979Z" fill="#FFBC96"/>
  <path d="M31.9306 84.8107C31.853 84.661 31.7878 84.5154 31.6832 84.4135C31.6321 84.3621 31.5726 84.3204 31.505 84.2838C31.4374 84.2473 31.3622 84.2168 31.2851 84.1804L31.297 84.1183C31.3845 84.1135 31.4732 84.1237 31.5603 84.153C31.6472 84.1816 31.7317 84.2321 31.798 84.3007C31.8644 84.3693 31.9126 84.4516 31.9425 84.5363C31.9731 84.6211 31.9894 84.7081 31.9919 84.7954L31.9306 84.8107Z" fill="#1B1B43"/>
  <path d="M29.8704 80.8416C30.8933 80.7931 31.68 79.8555 31.6275 78.7472C31.5751 77.639 30.7033 76.7799 29.6803 76.8283C28.6574 76.8767 27.8707 77.8144 27.9231 78.9226C27.9756 80.0309 28.8474 80.89 29.8704 80.8416Z" fill="#1B1B43"/>
  <path opacity="0.2" d="M34.0312 86.6445C34.4918 86.6445 34.8652 86.2711 34.8652 85.8105C34.8652 85.3499 34.4918 84.9766 34.0312 84.9766C33.5706 84.9766 33.1973 85.3499 33.1973 85.8105C33.1973 86.2711 33.5706 86.6445 34.0312 86.6445Z" fill="#FE5B52"/>
  <path d="M37.3087 107.374L23.291 105.587L25.9335 91.6552C26.1193 90.6807 26.7674 89.8539 27.6705 89.4441C28.4234 89.1009 29.2836 89.0795 30.0556 89.3821L34.833 91.5051C35.7527 91.9126 36.3865 92.7775 36.5009 93.7759L36.7702 98.3269L37.0775 103.486L37.3087 107.374Z" fill="#FF7500"/>
  <path d="M50.1341 97.3654L53.8444 96.2748C54.1118 96.1961 54.3991 96.2393 54.6312 96.3934C55.6468 97.0676 58.3501 98.9752 57.6676 99.7551C57.3269 100.145 54.2244 99.2318 54.2244 99.2318L49.7324 100.485L50.1341 97.3654Z" fill="#FFBC96"/>
  <path d="M37.0784 103.486C35.9108 101.999 35.2174 100.036 34.9863 97.6055L36.771 98.3274L37.0784 103.486Z" fill="#1B1B43"/>
  <path d="M34.4094 91.3301L34.9679 91.5708C36.1177 92.0664 37.1482 92.8025 37.9899 93.7295L42.5901 98.796L50.1355 97.3663L51.1283 101.417L41.6476 104.38C40.8989 104.513 40.1341 104.255 39.6196 103.695L32.7812 96.2544L34.4094 91.3301Z" fill="#FF7500"/>
  <path d="M42.5017 98.8761C42.4793 98.8517 40.2348 96.408 38.291 94.2284C36.3694 92.0739 33.4396 91.0263 33.4103 91.016L33.4893 90.7912C33.5192 90.8017 36.5054 91.8684 38.4688 94.0698C40.4115 96.248 42.6547 98.6904 42.6771 98.7148L42.5017 98.8761Z" fill="#1B1B43"/>
  <path d="M33.3412 97.0411L33.17 97.2069L39.5319 103.774L39.7031 103.608L33.3412 97.0411Z" fill="#1B1B43"/>
  <path d="M36.7994 128.447L33.7754 134.338L41.4146 138.259L39.3819 133.611L41.0404 129.927L36.7994 128.447Z" fill="#DAECE4"/>
  <path d="M39.3501 133.494L37.1797 134.133L37.247 134.361L39.4174 133.723L39.3501 133.494Z" fill="#1B1B43"/>
  <path d="M41.5571 132.319L34.6367 129.737L39.3758 114.991C40.1905 112.807 42.7 111.727 44.9808 112.578C47.2618 113.429 48.4504 115.889 47.6357 118.072L41.5571 132.319Z" fill="#334257"/>
  <path d="M48.2676 131.322L48.9431 138.331H57.5301L53.5987 135.124L52.6756 131.084L48.2676 131.322Z" fill="#DAECE4"/>
  <path d="M53.5411 135.015L51.5058 136.137L51.6209 136.345L53.6561 135.223L53.5411 135.015Z" fill="#1B1B43"/>
  <path d="M54.463 132.155L46.9574 133.347L41.8178 118.233L40.8814 115.476L28.1171 115.579C24.9599 115.65 22.4485 112.946 22.7583 109.801L23.2896 105.588L35.9182 107.177L44.2172 108.09C47.6722 108.685 48.7325 110.778 49.4521 113.465L54.463 132.155Z" fill="#334257"/>
  <path d="M41.8192 118.234L40.8828 115.478L42.6103 115.418C42.7699 116.457 42.3577 117.617 41.8192 118.234Z" fill="#1B1B43"/>
  <path d="M155.726 138.213H11.0938V138.451H155.726V138.213Z" fill="#1B1B43"/>
</svg>
