<svg width="40" height="40" viewBox="0 0 40 40" fill="none" xmlns="http://www.w3.org/2000/svg">
<rect width="40" height="40" rx="20" fill="#FCFCFC"/>
<path d="M10 26.1346V22.2018C10 21.9002 10.1016 21.6602 10.3047 21.4817C10.5078 21.297 10.7478 21.2047 11.0248 21.2047C11.1786 21.2047 11.3325 21.2386 11.4864 21.3063C11.6464 21.3678 11.7972 21.4663 11.9387 21.6017C12.0803 21.7371 12.2403 21.8787 12.4188 22.0264C12.5973 22.1679 12.8127 22.288 13.065 22.3864C13.3174 22.4849 13.622 22.5341 13.979 22.5341C14.4406 22.5341 14.8591 22.4234 15.2346 22.2018C15.6162 21.9741 15.9178 21.6694 16.1393 21.2878C16.3609 20.9062 16.4717 20.4815 16.4717 20.0138C16.4717 19.5399 16.3609 19.1121 16.1393 18.7305C15.9178 18.3489 15.6162 18.0474 15.2346 17.8258C14.8591 17.6042 14.4406 17.4934 13.979 17.4934C13.622 17.4934 13.3174 17.5427 13.065 17.6411C12.8127 17.7396 12.5973 17.8596 12.4188 18.0012C12.2403 18.1428 12.0803 18.2812 11.9387 18.4166C11.7972 18.5582 11.6464 18.6628 11.4864 18.7305C11.3325 18.7921 11.1786 18.8229 11.0248 18.8229C10.7478 18.8229 10.5078 18.7336 10.3047 18.5551C10.1016 18.3705 10 18.1274 10 17.8258V13.8652C10 12.9482 10.2308 12.2558 10.6924 11.788C11.1602 11.3141 11.8495 11.0771 12.7604 11.0771H24.1804C25.1037 11.0771 25.7991 11.311 26.2669 11.7788C26.7408 12.2404 26.9778 12.9236 26.9778 13.8283V17.7981C26.9778 17.8904 27.0085 17.952 27.0701 17.9827C27.1378 18.0135 27.2178 17.992 27.3101 17.9181C27.4824 17.7889 27.664 17.6719 27.8548 17.5673C28.0456 17.4627 28.2518 17.3796 28.4734 17.318C28.7011 17.2503 28.9473 17.2165 29.2119 17.2165C29.7351 17.2165 30.2059 17.3426 30.6244 17.595C31.0491 17.8412 31.3845 18.1797 31.6307 18.6105C31.8769 19.0352 32 19.5091 32 20.0323C32 20.5616 31.8769 21.0416 31.6307 21.4725C31.3845 21.8971 31.0491 22.2356 30.6244 22.488C30.2059 22.7342 29.7351 22.8573 29.2119 22.8573C28.9473 22.8573 28.7011 22.8265 28.4734 22.7649C28.2518 22.6972 28.0456 22.6111 27.8548 22.5064C27.664 22.4018 27.4824 22.2849 27.3101 22.1556C27.2178 22.0818 27.1378 22.0602 27.0701 22.091C27.0085 22.1218 26.9778 22.1833 26.9778 22.2756V26.1716C26.9778 27.0763 26.7408 27.7595 26.2669 28.2211C25.7991 28.6889 25.1037 28.9227 24.1804 28.9227H12.7604C11.8495 28.9227 11.1602 28.6858 10.6924 28.2119C10.2308 27.7441 10 27.0517 10 26.1346Z" fill="#039D55" fill-opacity="0.5"/>
</svg>
