<svg width="14" height="14" viewBox="0 0 14 14" fill="none" xmlns="http://www.w3.org/2000/svg">
<path fill-rule="evenodd" clip-rule="evenodd" d="M8.48336 1.51528C8.34914 1.23577 8.13868 0.999863 7.87622 0.834749C7.61377 0.669635 7.31001 0.582031 6.99994 0.582031C6.68987 0.582031 6.38611 0.669635 6.12366 0.834749C5.86121 0.999863 5.65075 1.23577 5.51653 1.51528L0.782194 10.8282C0.215777 11.94 0.931527 13.4164 2.26503 13.4164H11.7343C13.0684 13.4164 13.7829 11.9406 13.2177 10.8282L8.48336 1.51528ZM6.99994 4.66645C7.15465 4.66645 7.30303 4.72791 7.41242 4.8373C7.52182 4.9467 7.58328 5.09507 7.58328 5.24978V8.16645C7.58328 8.32116 7.52182 8.46953 7.41242 8.57893C7.30303 8.68832 7.15465 8.74978 6.99994 8.74978C6.84523 8.74978 6.69686 8.68832 6.58746 8.57893C6.47807 8.46953 6.41661 8.32116 6.41661 8.16645V5.24978C6.41661 5.09507 6.47807 4.9467 6.58746 4.8373C6.69686 4.72791 6.84523 4.66645 6.99994 4.66645ZM6.99994 9.62478C7.15465 9.62478 7.30303 9.68624 7.41242 9.79563C7.52182 9.90503 7.58328 10.0534 7.58328 10.2081V10.4998C7.58328 10.6545 7.52182 10.8029 7.41242 10.9123C7.30303 11.0217 7.15465 11.0831 6.99994 11.0831C6.84523 11.0831 6.69686 11.0217 6.58746 10.9123C6.47807 10.8029 6.41661 10.6545 6.41661 10.4998V10.2081C6.41661 10.0534 6.47807 9.90503 6.58746 9.79563C6.69686 9.68624 6.84523 9.62478 6.99994 9.62478Z" fill="#F16F00"/>
</svg>
