<svg width="37" height="37" viewBox="0 0 37 37" fill="none" xmlns="http://www.w3.org/2000/svg">
<g id="fi_3240627" clip-path="url(#clip0_4869_18171)">
<g id="Group">
<g id="Group_2">
<path id="Vector" d="M32.3675 30.1316C32.8853 30.0083 33.2081 29.4838 33.0848 28.966C32.9615 28.4482 32.4369 28.1254 31.9191 28.2487L30.0363 28.6971L28.8348 23.6511C28.6073 22.6955 27.9767 21.8857 27.1122 21.43L21.4477 18.4464C21.0673 18.2484 20.8071 17.9075 20.7073 17.4886C20.6076 17.0697 20.691 16.6469 20.9366 16.2999L24.6486 11.0837C25.2198 10.2861 25.4129 9.28017 25.1854 8.32462L23.9839 3.27862L25.8667 2.8303C26.3845 2.707 26.7073 2.18248 26.584 1.66468C26.4607 1.14688 25.9361 0.824275 25.4184 0.947552L23.5356 1.39588L5.64849 5.65502L3.76567 6.10334C3.24787 6.22664 2.92509 6.75116 3.04839 7.26896C3.17168 7.78676 3.69621 8.10954 4.21401 7.98624L6.09683 7.53792L7.4082 13.0453C7.63685 14.0055 8.26853 14.82 9.14723 15.2724L14.1901 17.9015C14.5705 18.0995 14.8413 18.4428 14.9411 18.8618C15.0408 19.2807 14.9586 19.7081 14.7035 20.0574L11.3855 24.6724C10.8061 25.4769 10.6093 26.4887 10.8379 27.449L12.1493 32.9563L10.2665 33.4047C9.74867 33.528 9.42589 34.0525 9.54919 34.5703C9.67248 35.0881 10.197 35.4109 10.7148 35.2876L12.5976 34.8392L30.4846 30.5801L32.3675 30.1318L32.3675 30.1316ZM28.1534 29.1455L14.0321 32.5079L12.7207 27.0006C12.6221 26.5864 12.708 26.1531 12.9536 25.8061L16.2716 21.1911C16.8463 20.3877 17.049 19.3795 16.8203 18.4192C16.5917 17.4589 15.96 16.6444 15.0813 16.1921L10.0384 13.5629C9.66268 13.3639 9.38964 13.0111 9.29101 12.5969L7.97963 7.08952L22.101 3.72704L23.3025 8.77303C23.4 9.18257 23.3141 9.61581 23.0685 9.96284L19.3564 15.1791C18.79 15.9755 18.5922 16.9826 18.8197 17.9382C19.0472 18.8937 19.6778 19.7035 20.5423 20.1592L26.2115 23.1417C26.5872 23.3408 26.8543 23.69 26.9518 24.0995L28.1534 29.1455Z" fill="white"/>
<path id="Vector_2" d="M19.9407 20.7452C19.3316 20.4226 18.7874 19.9752 18.4112 19.3983C18.1689 19.0282 18.0102 18.6333 17.9044 18.2307C17.8988 18.2072 17.8876 18.1601 17.8876 18.1601L17.7511 18.1926L17.7668 18.2585C18.0035 19.3362 17.7785 20.4592 17.137 21.3581L13.8201 25.9778C13.6567 26.2107 13.596 26.4987 13.6621 26.7765L14.6496 30.9235C14.7045 31.1541 14.9376 31.2976 15.1683 31.2426L26.5689 28.528C26.7996 28.4731 26.943 28.2399 26.8881 28.0093L26.0105 24.3236C25.9444 24.0459 25.7651 23.815 25.5142 23.6807L19.9407 20.7452Z" fill="white"/>
</g>
</g>
</g>
<defs>
<clipPath id="clip0_4869_18171">
<rect width="30" height="30" fill="white" transform="translate(0 7) rotate(-13.3935)"/>
</clipPath>
</defs>
</svg>
