<svg width="26" height="25" viewBox="0 0 26 25" fill="none" xmlns="http://www.w3.org/2000/svg">
<g clip-path="url(#clip0_4869_19413)">
<path d="M22.534 20.4215C22.8792 20.3393 23.0943 19.9897 23.0121 19.6444C22.9299 19.2992 22.5803 19.0841 22.2351 19.1663L20.9798 19.4651L20.1788 16.1012C20.0271 15.4641 19.6068 14.9242 19.0304 14.6204L15.2541 12.6314C15.0005 12.4994 14.827 12.2721 14.7605 11.9928C14.694 11.7136 14.7496 11.4317 14.9134 11.2004L17.388 7.7229C17.7688 7.19119 17.8976 6.52056 17.7459 5.88352L16.9449 2.51953L18.2001 2.22065C18.5453 2.13845 18.7605 1.78877 18.6783 1.44357C18.5961 1.09837 18.2464 0.883298 17.9012 0.965482L16.646 1.26436L4.72129 4.10379L3.46607 4.40268C3.12087 4.48487 2.90569 4.83456 2.98789 5.17976C3.07008 5.52496 3.41977 5.74014 3.76497 5.65794L5.02018 5.35906L5.89443 9.03062C6.04686 9.6708 6.46798 10.2138 7.05378 10.5154L10.4157 12.2681C10.6693 12.4001 10.8499 12.629 10.9164 12.9083C10.9829 13.1876 10.928 13.4725 10.7579 13.7054L8.54596 16.7821C8.15968 17.3184 8.02847 17.9929 8.18091 18.6331L9.05515 22.3047L7.79994 22.6036C7.45474 22.6858 7.23956 23.0354 7.32175 23.3806C7.40395 23.7258 7.75363 23.941 8.09883 23.8588L9.35405 23.5599L21.2787 20.7205L22.534 20.4216L22.534 20.4215ZM19.7246 19.7641L10.3104 22.0057L9.43611 18.3342C9.37035 18.058 9.4276 17.7692 9.59138 17.5378L11.8034 14.4612C12.1865 13.9256 12.3216 13.2534 12.1692 12.6133C12.0167 11.9731 11.5956 11.4301 11.0098 11.1285L7.64788 9.37573C7.39741 9.24302 7.21539 9.00785 7.14963 8.73169L6.27538 5.06013L15.6896 2.81847L16.4906 6.18247C16.5556 6.45549 16.4984 6.74432 16.3346 6.97567L13.8599 10.4532C13.4823 10.9841 13.3504 11.6555 13.5021 12.2926C13.6538 12.9296 14.0741 13.4695 14.6505 13.7733L18.43 15.7616C18.6804 15.8943 18.8585 16.1271 18.9235 16.4001L19.7246 19.7641Z" fill="#FF5555"/>
<path d="M14.2494 14.164C13.8434 13.9489 13.4806 13.6507 13.2298 13.266C13.0683 13.0193 12.9625 12.756 12.8919 12.4877C12.8882 12.472 12.8807 12.4406 12.8807 12.4406L12.7897 12.4622L12.8002 12.5062C12.958 13.2247 12.808 13.9733 12.3803 14.5726L10.1691 17.6524C10.0602 17.8077 10.0197 17.9997 10.0638 18.1848L10.722 20.9495C10.7587 21.1032 10.9141 21.1989 11.0678 21.1623L18.6683 19.3525C18.822 19.3159 18.9177 19.1605 18.8811 19.0067L18.296 16.5496C18.2519 16.3644 18.1324 16.2105 17.9651 16.121L14.2494 14.164Z" fill="#FF5555"/>
</g>
<defs>
<clipPath id="clip0_4869_19413">
<rect width="20" height="20" fill="white" transform="translate(0.955597 5.00049) rotate(-13.3935)"/>
</clipPath>
</defs>
</svg>
