<svg width="18" height="18" viewBox="0 0 18 18" fill="none" xmlns="http://www.w3.org/2000/svg">
<path opacity="0.2" d="M11.5629 2.25H6.43705C6.36319 2.25 6.29004 2.26455 6.22179 2.29282C6.15355 2.32109 6.09154 2.36252 6.03931 2.41475L2.41475 6.03931C2.36252 6.09154 2.32109 6.15355 2.29282 6.22179C2.26455 6.29004 2.25 6.36319 2.25 6.43705V11.5629C2.25 11.6368 2.26455 11.71 2.29282 11.7782C2.32109 11.8465 2.36252 11.9085 2.41475 11.9607L6.03931 15.5852C6.09154 15.6375 6.15355 15.6789 6.22179 15.7072C6.29004 15.7355 6.36319 15.75 6.43705 15.75H11.5629C11.6368 15.75 11.71 15.7355 11.7782 15.7072C11.8465 15.6789 11.9085 15.6375 11.9607 15.5852L15.5852 11.9607C15.6375 11.9085 15.6789 11.8465 15.7072 11.7782C15.7355 11.71 15.75 11.6368 15.75 11.5629V6.43705C15.75 6.36319 15.7355 6.29004 15.7072 6.22179C15.6789 6.15355 15.6375 6.09154 15.5852 6.03931L11.9607 2.41475C11.9085 2.36252 11.8465 2.32109 11.7782 2.29282C11.71 2.26455 11.6368 2.25 11.5629 2.25Z" fill="#FF6D6D"/>
<path d="M9 5.625V9.5625" stroke="#FF6D6D" stroke-linecap="round" stroke-linejoin="round"/>
<path d="M11.5629 2.25H6.43705C6.36319 2.25 6.29004 2.26455 6.22179 2.29282C6.15355 2.32109 6.09154 2.36252 6.03931 2.41475L2.41475 6.03931C2.36252 6.09154 2.32109 6.15355 2.29282 6.22179C2.26455 6.29004 2.25 6.36319 2.25 6.43705V11.5629C2.25 11.6368 2.26455 11.71 2.29282 11.7782C2.32109 11.8465 2.36252 11.9085 2.41475 11.9607L6.03931 15.5852C6.09154 15.6375 6.15355 15.6789 6.22179 15.7072C6.29004 15.7355 6.36319 15.75 6.43705 15.75H11.5629C11.6368 15.75 11.71 15.7355 11.7782 15.7072C11.8465 15.6789 11.9085 15.6375 11.9607 15.5852L15.5852 11.9607C15.6375 11.9085 15.6789 11.8465 15.7072 11.7782C15.7355 11.71 15.75 11.6368 15.75 11.5629V6.43705C15.75 6.36319 15.7355 6.29004 15.7072 6.22179C15.6789 6.15355 15.6375 6.09154 15.5852 6.03931L11.9607 2.41475C11.9085 2.36252 11.8465 2.32109 11.7782 2.29282C11.71 2.26455 11.6368 2.25 11.5629 2.25Z" stroke="#FF6D6D" stroke-miterlimit="10"/>
<path d="M9 12.9375C9.46599 12.9375 9.84375 12.5597 9.84375 12.0938C9.84375 11.6278 9.46599 11.25 9 11.25C8.53401 11.25 8.15625 11.6278 8.15625 12.0938C8.15625 12.5597 8.53401 12.9375 9 12.9375Z" fill="#FF6D6D"/>
</svg>
