<svg width="161" height="128" viewBox="0 0 161 128" fill="none" xmlns="http://www.w3.org/2000/svg">
<path opacity="0.4" d="M155.183 90.1632C158.253 87.0927 158.253 82.1144 155.183 79.0438C152.112 75.9733 147.134 75.9733 144.064 79.0438C140.993 82.1144 140.993 87.0927 144.064 90.1632C147.134 93.2337 152.112 93.2337 155.183 90.1632Z" fill="#D8EEE4"/>
<path opacity="0.4" d="M28.7206 38.2024C33.4049 33.5181 33.4049 25.9233 28.7206 21.239C24.0363 16.5546 16.4415 16.5546 11.7571 21.239C7.07279 25.9233 7.07279 33.5181 11.7571 38.2024C16.4415 42.8868 24.0363 42.8868 28.7206 38.2024Z" fill="#D8EEE4"/>
<path opacity="0.4" d="M61.7295 18.1895C65.183 18.1895 67.9825 15.39 67.9825 11.9366C67.9825 8.48315 65.183 5.68359 61.7295 5.68359C58.2761 5.68359 55.4766 8.48315 55.4766 11.9366C55.4766 15.39 58.2761 18.1895 61.7295 18.1895Z" fill="#D8EEE4"/>
<path d="M52.7749 15.0289C52.3882 15.0289 51.9976 14.9984 51.6145 14.9383L51.6515 14.7028C52.0225 14.7611 52.4006 14.7905 52.7754 14.7905L52.8189 14.7904L52.8204 15.0287L52.7749 15.0289ZM54.0252 14.9235L53.9853 14.6885C54.3682 14.6235 54.75 14.5266 55.1203 14.4004L55.1972 14.6259C54.8148 14.7563 54.4205 14.8564 54.0252 14.9235ZM50.4388 14.6556C50.0564 14.5304 49.6811 14.3735 49.3234 14.1889L49.4327 13.9772C49.779 14.1559 50.1424 14.3079 50.5128 14.429L50.4388 14.6556ZM56.3069 14.1463L56.1952 13.9359C56.5401 13.7529 56.8721 13.5408 57.1817 13.3057L57.3258 13.4955C57.006 13.7384 56.6631 13.9573 56.3069 14.1463ZM48.2969 13.5506C47.973 13.3112 47.6664 13.044 47.3857 12.7561L47.5563 12.5897C47.828 12.8683 48.1248 13.1272 48.4385 13.359L48.2969 13.5506ZM58.2265 12.6889L58.0537 12.5247C58.3216 12.2425 58.5689 11.936 58.7887 11.6137L58.9855 11.7479C58.7586 12.0809 58.5032 12.3974 58.2265 12.6889ZM46.6142 11.8252C46.3837 11.4962 46.1781 11.1452 46.0028 10.7821L46.2175 10.6785C46.3871 11.0302 46.5862 11.3699 46.8094 11.6885L46.6142 11.8252ZM59.5844 10.6976L59.3686 10.5965C59.5341 10.2433 59.6723 9.87436 59.7792 9.49989L60.0083 9.56527C59.8979 9.95204 59.7553 10.333 59.5844 10.6976ZM45.5655 9.65506C45.4497 9.26848 45.3647 8.87066 45.3128 8.47255L45.5491 8.44176C45.5994 8.8272 45.6818 9.21244 45.7937 9.58681L45.5655 9.65506ZM60.246 8.37981L60.0095 8.35189C60.0425 8.07111 60.0593 7.78565 60.0593 7.50354C60.0593 7.3966 60.0569 7.28833 60.0522 7.18168L60.2901 7.1711C60.2951 7.28118 60.2976 7.39307 60.2976 7.50354C60.2976 7.79509 60.2802 8.08988 60.246 8.37981ZM45.4921 7.27193L45.2539 7.26421C45.267 6.86239 45.3129 6.45808 45.3906 6.06264L45.6244 6.10859C45.5492 6.49144 45.5047 6.88279 45.4921 7.27193ZM59.9055 6.02023C59.8259 5.64042 59.7145 5.26243 59.5743 4.89691L59.7967 4.81161C59.9415 5.18894 60.0565 5.57914 60.1387 5.97134L59.9055 6.02023ZM45.9414 4.98136L45.7179 4.89873C45.8574 4.5213 46.0286 4.15235 46.2264 3.802L46.4339 3.91913C46.2423 4.25853 46.0765 4.61584 45.9414 4.98136ZM59.5526 4.84135C59.4097 4.47726 59.237 4.12319 59.0394 3.78903L59.2444 3.6678C59.4486 4.01282 59.6268 4.37833 59.7744 4.75423L59.5526 4.84135ZM47.0895 2.94917L46.9034 2.80029C47.155 2.48568 47.4339 2.18955 47.7322 1.9202L47.892 2.097C47.6031 2.35796 47.3331 2.64465 47.0895 2.94917ZM58.3639 2.83298C58.1143 2.53438 57.8382 2.2536 57.5433 1.99855L57.6992 1.81832C58.0039 2.08175 58.289 2.37169 58.5468 2.6802L58.3639 2.83298ZM48.8213 1.38551L48.6923 1.18518C49.0296 0.967869 49.3882 0.775726 49.758 0.614271L49.8534 0.832624C49.4951 0.989027 49.148 1.17507 48.8213 1.38551ZM56.5991 1.3066C56.2674 1.10225 55.9165 0.923075 55.5563 0.774106L55.6474 0.553845C56.0193 0.707674 56.3816 0.892764 56.7241 1.10368L56.5991 1.3066ZM50.9603 0.450243L50.9007 0.219499C51.2912 0.118566 51.692 0.0488943 52.0921 0.0123907L52.1137 0.249615C51.7265 0.28507 51.3384 0.35255 50.9603 0.450243ZM54.4419 0.414405C54.0624 0.324719 53.673 0.265246 53.2845 0.237701L53.3014 0C53.7026 0.0284976 54.1047 0.0898778 54.4968 0.182519L54.4419 0.414405Z" fill="#00B560" fill-opacity="0.5"/>
<path d="M127.843 98.302L127.839 98.0637C128.234 98.0569 128.632 98.0408 129.024 98.0158L129.039 98.2535C128.644 98.2787 128.242 98.295 127.843 98.302ZM126.647 98.295C126.25 98.2836 125.848 98.2626 125.452 98.2328L125.47 97.9953C125.862 98.0248 126.26 98.0455 126.654 98.057L126.647 98.295ZM130.23 98.1493L130.204 97.9126C130.595 97.8691 130.991 97.8157 131.379 97.7541L131.416 97.9894C131.024 98.0516 130.626 98.1055 130.23 98.1493ZM124.261 98.1146C123.868 98.0664 123.47 98.0079 123.077 97.9409L123.118 97.7059C123.506 97.7724 123.901 97.8304 124.29 97.8783L124.261 98.1146ZM132.593 97.7737L132.544 97.5405C132.931 97.46 133.319 97.3697 133.699 97.2719L133.758 97.5026C133.375 97.6013 132.983 97.6925 132.593 97.7737ZM121.903 97.7113C121.515 97.6259 121.124 97.5301 120.741 97.4265L120.803 97.1964C121.183 97.2991 121.57 97.394 121.954 97.4786L121.903 97.7113ZM134.91 97.1764L134.839 96.9487C135.216 96.8324 135.594 96.7057 135.963 96.572L136.044 96.7962C135.671 96.9311 135.29 97.0591 134.91 97.1764ZM119.594 97.0866C119.216 96.965 118.835 96.8321 118.461 96.692L118.545 96.4689C118.915 96.6077 119.293 96.7392 119.667 96.8599L119.594 97.0866ZM137.157 96.3636L137.065 96.1435C137.426 95.9932 137.79 95.8318 138.146 95.6635L138.248 95.8788C137.888 96.0487 137.521 96.2118 137.157 96.3636ZM117.349 96.244C116.983 96.0865 116.616 95.9182 116.259 95.7439L116.364 95.5298C116.718 95.7025 117.081 95.8692 117.443 96.0251L117.349 96.244ZM139.315 95.3431L139.203 95.1328C139.55 94.9483 139.897 94.7532 140.235 94.5524L140.357 94.7573C140.015 94.9599 139.665 95.1571 139.315 95.3431ZM115.195 95.193C114.847 95.0023 114.498 94.8003 114.158 94.5925L114.282 94.3893C114.619 94.595 114.965 94.7952 115.31 94.9839L115.195 95.193ZM141.37 94.1231L141.238 93.9241C141.567 93.7071 141.895 93.4801 142.212 93.2493L142.352 93.4418C142.032 93.6748 141.702 93.9039 141.37 94.1231ZM113.151 93.9443C112.823 93.7219 112.495 93.4881 112.176 93.2495L112.319 93.0586C112.635 93.2951 112.96 93.5267 113.285 93.747L113.151 93.9443ZM143.301 92.7149L143.152 92.5291C143.459 92.283 143.764 92.0262 144.059 91.7658L144.216 91.9443C143.919 92.2072 143.611 92.4665 143.301 92.7149ZM111.235 92.5097C110.928 92.2568 110.623 91.9934 110.329 91.7269L110.489 91.5504C110.78 91.8144 111.082 92.0752 111.386 92.3257L111.235 92.5097ZM145.094 91.1317L144.928 90.9606C145.211 90.6867 145.49 90.4024 145.76 90.1155L145.933 90.2786C145.661 90.5681 145.379 90.8552 145.094 91.1317ZM109.461 90.9028C109.179 90.622 108.901 90.3315 108.633 90.0392L108.809 89.8783C109.074 90.1678 109.35 90.4557 109.629 90.7339L109.461 90.9028ZM146.732 89.3868L146.55 89.2322C146.807 88.9322 147.059 88.6227 147.299 88.3127L147.488 88.4588C147.245 88.7718 146.99 89.084 146.732 89.3868ZM107.847 89.1382C107.592 88.8326 107.342 88.5174 107.103 88.2015L107.293 88.0577C107.53 88.3708 107.778 88.6831 108.03 88.9857L107.847 89.1382ZM148.199 87.4959L148.005 87.3588C148.231 87.0362 148.453 86.7045 148.664 86.3727L148.865 86.5005C148.653 86.8353 148.429 87.1702 148.199 87.4959ZM106.405 87.231C106.181 86.9039 105.962 86.5669 105.753 86.2293L105.956 86.1041C106.162 86.4385 106.38 86.7724 106.602 87.0964L106.405 87.231ZM149.484 85.4747L149.277 85.3565C149.472 85.0151 149.662 84.6637 149.841 84.3122L150.053 84.4205C149.872 84.7753 149.681 85.13 149.484 85.4747ZM105.149 85.1983C104.956 84.8512 104.77 84.4954 104.594 84.1402L104.808 84.0347C104.982 84.3863 105.167 84.7391 105.357 85.0827L105.149 85.1983ZM150.573 83.3401L150.356 83.242C150.518 82.8819 150.674 82.5138 150.819 82.1484L151.04 82.236C150.894 82.6051 150.737 82.9765 150.573 83.3401ZM104.09 83.0577C103.931 82.6942 103.779 82.3224 103.638 81.953L103.861 81.8679C104 82.2338 104.151 82.602 104.308 82.9621L104.09 83.0577ZM151.455 81.1108L151.23 81.0337C151.357 80.662 151.477 80.2816 151.586 79.9033L151.815 79.9696C151.704 80.3516 151.583 80.7355 151.455 81.1108ZM103.238 80.8255C103.113 80.4472 102.997 80.0618 102.891 79.68L103.121 79.6165C103.225 79.9947 103.341 80.3764 103.464 80.7509L103.238 80.8255ZM152.121 78.8128L151.889 78.7573C151.98 78.3756 152.064 77.9856 152.137 77.5984L152.371 77.6427C152.297 78.0337 152.213 78.4275 152.121 78.8128ZM102.599 78.5194C102.512 78.1335 102.433 77.739 102.363 77.3466L102.598 77.3048C102.667 77.6936 102.745 78.0845 102.832 78.4668L102.599 78.5194ZM152.566 76.4622L152.33 76.4288C152.384 76.0406 152.431 75.6445 152.468 75.2516L152.705 75.2737C152.668 75.6704 152.621 76.0703 152.566 76.4622ZM102.182 76.164C102.132 75.7713 102.09 75.371 102.057 74.974L102.295 74.9547C102.327 75.3479 102.368 75.7445 102.419 76.1335L102.182 76.164ZM152.788 74.0803L152.55 74.0693C152.568 73.6778 152.577 73.2791 152.577 72.8843H152.816C152.816 73.2827 152.806 73.6852 152.788 74.0803ZM101.988 73.7796C101.978 73.4838 101.973 73.1826 101.973 72.8843C101.973 72.7837 101.973 72.6833 101.974 72.583L102.213 72.5858C102.211 72.6852 102.211 72.7847 102.211 72.8843C102.211 73.1799 102.216 73.4782 102.226 73.7714L101.988 73.7796ZM152.571 72.2988C152.562 71.9048 152.543 71.5065 152.516 71.1146L152.754 71.0981C152.781 71.4936 152.8 71.8956 152.809 72.2933L152.571 72.2988ZM102.254 71.4012L102.016 71.3874C102.039 70.9898 102.072 70.5886 102.113 70.1949L102.35 70.2199C102.309 70.6099 102.277 71.0073 102.254 71.4012ZM152.406 69.9345C152.361 69.5446 152.305 69.1497 152.241 68.7609L152.477 68.7222C152.541 69.1148 152.597 69.5133 152.643 69.907L152.406 69.9345ZM102.502 69.0445L102.266 69.0085C102.326 68.6155 102.397 68.2191 102.475 67.8304L102.709 67.8775C102.631 68.2626 102.561 68.6553 102.502 69.0445ZM152.021 67.5962C151.939 67.2123 151.847 66.8244 151.746 66.4433L151.976 66.3825C152.078 66.7673 152.171 67.1589 152.254 67.5463L152.021 67.5962ZM102.97 66.7215L102.739 66.6634C102.836 66.2781 102.944 65.8901 103.059 65.5103L103.287 65.5793C103.173 65.9554 103.066 66.3398 102.97 66.7215ZM151.417 65.3049C151.298 64.9294 151.169 64.5521 151.034 64.1832L151.257 64.1009C151.394 64.4733 151.524 64.8542 151.644 65.2332L151.417 65.3049ZM103.658 64.4503L103.433 64.3705C103.567 63.9953 103.711 63.6184 103.862 63.2505L104.082 63.3407C103.933 63.7053 103.79 64.0786 103.658 64.4503ZM150.599 63.0836C150.446 62.7229 150.283 62.3602 150.113 62.0053L150.328 61.9023C150.499 62.2605 150.665 62.6267 150.818 62.9907L150.599 63.0836ZM104.558 62.2528L104.343 62.152C104.51 61.7926 104.689 61.4313 104.875 61.0782L105.086 61.1889C104.902 61.5388 104.725 61.8968 104.558 62.2528ZM149.576 60.9509C149.39 60.6061 149.193 60.2602 148.99 59.9226L149.194 59.7998C149.399 60.1406 149.598 60.4898 149.786 60.838L149.576 60.9509ZM105.662 60.1516L105.457 60.0309C105.658 59.6884 105.87 59.3457 106.087 59.0125L106.287 59.1426C106.072 59.4729 105.861 59.8124 105.662 60.1516ZM148.356 58.9226C148.138 58.596 147.909 58.2699 147.676 57.9532L147.867 57.8118C148.103 58.1315 148.334 58.4607 148.554 58.7904L148.356 58.9226ZM106.958 58.1646L106.765 58.0252C106.997 57.7035 107.241 57.3824 107.488 57.071L107.675 57.2193C107.429 57.5279 107.188 57.8459 106.958 58.1646ZM146.95 57.0165C146.702 56.7114 146.444 56.4079 146.182 56.1145L146.359 55.9557C146.624 56.2519 146.885 56.5582 147.135 56.8662L146.95 57.0165ZM108.435 56.3088L108.255 56.1519C108.517 55.8527 108.789 55.5559 109.064 55.2699L109.236 55.435C108.964 55.7183 108.694 56.0124 108.435 56.3088ZM145.372 55.2494C145.096 54.968 144.81 54.6899 144.522 54.4228L144.684 54.2482C144.975 54.5178 145.263 54.7986 145.542 55.0825L145.372 55.2494ZM110.077 54.6L109.913 54.427C110.202 54.1537 110.5 53.8838 110.801 53.6248L110.956 53.8053C110.659 54.0618 110.363 54.3293 110.077 54.6ZM143.634 53.6367C143.335 53.3833 143.024 53.1331 142.711 52.8929L142.856 52.7039C143.172 52.9463 143.486 53.199 143.788 53.4547L143.634 53.6367ZM111.872 53.0527L111.724 52.8651C112.037 52.6205 112.359 52.3797 112.683 52.1497L112.821 52.3439C112.5 52.5718 112.181 52.8102 111.872 53.0527ZM141.753 52.193C141.429 51.968 141.096 51.7478 140.763 51.5388L140.89 51.337C141.226 51.5481 141.562 51.7702 141.889 51.9974L141.753 52.193ZM113.802 51.6807L113.673 51.4802C114.007 51.2657 114.35 51.0564 114.693 50.8581L114.812 51.0644C114.473 51.2609 114.133 51.4683 113.802 51.6807ZM139.743 50.9318C139.4 50.7383 139.048 50.5504 138.696 50.3735L138.803 50.1606C139.158 50.3393 139.514 50.529 139.86 50.7243L139.743 50.9318ZM115.851 50.4965L115.742 50.2848C116.093 50.1031 116.455 49.927 116.815 49.7618L116.915 49.9784C116.557 50.1422 116.199 50.3165 115.851 50.4965ZM137.623 49.8651C137.263 49.7049 136.894 49.5511 136.527 49.4081L136.613 49.186C136.984 49.3304 137.356 49.4857 137.72 49.6474L137.623 49.8651ZM118.001 49.5113L117.912 49.2903C118.281 49.1418 118.658 49.0004 119.032 48.8701L119.111 49.0952C118.74 49.2242 118.367 49.3642 118.001 49.5113ZM135.41 49.0036C135.036 48.8784 134.655 48.7605 134.277 48.6533L134.342 48.4241C134.724 48.5324 135.109 48.6513 135.485 48.7777L135.41 49.0036ZM120.239 48.7321L120.172 48.5037C120.552 48.3912 120.94 48.2862 121.327 48.1916L121.383 48.423C121.001 48.5166 120.616 48.6207 120.239 48.7321ZM133.129 48.3572C132.746 48.268 132.356 48.1868 131.969 48.1158L132.012 47.8814C132.403 47.9531 132.797 48.0351 133.183 48.1252L133.129 48.3572ZM122.541 48.1685L122.495 47.9346C122.885 47.8585 123.282 47.7908 123.675 47.7332L123.709 47.969C123.32 48.0259 122.927 48.0931 122.541 48.1685ZM130.799 47.9293C130.409 47.8767 130.013 47.8326 129.621 47.7983L129.641 47.561C130.037 47.5957 130.437 47.6402 130.831 47.6933L130.799 47.9293ZM124.886 47.8246L124.862 47.5875C125.256 47.5485 125.658 47.5182 126.055 47.4976L126.067 47.7356C125.674 47.756 125.276 47.7859 124.886 47.8246ZM128.438 47.7224C128.092 47.7083 127.741 47.7012 127.394 47.7012C127.346 47.7011 127.3 47.7013 127.253 47.7015L127.251 47.4633C127.299 47.4631 127.347 47.4632 127.394 47.4629C127.744 47.4629 128.098 47.4701 128.448 47.4843L128.438 47.7224Z" fill="#00B560" fill-opacity="0.5"/>
<path d="M24.2581 70.4278C23.8582 70.4254 23.4552 70.4089 23.0601 70.3785L23.0783 70.141C23.4677 70.1709 23.8652 70.1872 24.2595 70.1895L24.2581 70.4278ZM25.4569 70.3924L25.4414 70.1547C25.8329 70.1292 26.2286 70.0894 26.6175 70.0361L26.6499 70.2722C26.2554 70.3261 25.854 70.3666 25.4569 70.3924ZM21.8686 70.2445C21.4738 70.1857 21.0771 70.112 20.6895 70.0252L20.7415 69.7928C21.1236 69.8783 21.5146 69.9509 21.9036 70.0089L21.8686 70.2445ZM27.8313 70.0666L27.782 69.8336C28.1658 69.7525 28.5518 69.6564 28.9291 69.5477L28.9949 69.7768C28.6122 69.8869 28.2206 69.9844 27.8313 70.0666ZM19.5293 69.7216C19.1474 69.6067 18.7649 69.4765 18.3924 69.3344L18.4773 69.1118C18.8445 69.2518 19.2215 69.3802 19.5979 69.4934L19.5293 69.7216ZM30.1348 69.4034L30.0526 69.1797C30.4202 69.0446 30.7878 68.894 31.1453 68.7324L31.2435 68.9495C30.8807 69.1135 30.5078 69.2663 30.1348 69.4034ZM17.2868 68.8662C16.926 68.6978 16.5664 68.5139 16.218 68.3198L16.3341 68.1116C16.6775 68.3031 17.0319 68.4843 17.3876 68.6502L17.2868 68.8662ZM32.3168 68.417L32.2034 68.2075C32.5478 68.0209 32.8903 67.8191 33.2214 67.6077L33.3496 67.8085C33.0138 68.023 32.6663 68.2277 32.3168 68.417ZM15.1914 67.6981C14.8585 67.4799 14.529 67.2466 14.2122 67.0048L14.3568 66.8154C14.6692 67.0538 14.9941 67.2837 15.3222 67.4989L15.1914 67.6981ZM34.3363 67.1277L34.1941 66.9365C34.509 66.7023 34.8194 66.4536 35.1167 66.1975L35.2722 66.3781C34.9707 66.6378 34.6558 66.89 34.3363 67.1277ZM13.2852 66.2434C12.9869 65.9801 12.694 65.7025 12.4148 65.4182L12.5847 65.2512C12.8601 65.5315 13.1488 65.8053 13.4428 66.0648L13.2852 66.2434ZM36.1524 65.5636L35.9845 65.3946C36.263 65.1178 36.535 64.8275 36.793 64.5317L36.9725 64.6883C36.7109 64.9883 36.4349 65.2829 36.1524 65.5636ZM11.6054 64.5331C11.3472 64.2296 11.0968 63.9133 10.8613 63.5928L11.0534 63.4516C11.2856 63.7676 11.5323 64.0794 11.7869 64.3786L11.6054 64.5331ZM37.7285 63.7567L37.5382 63.6133C37.7747 63.2995 38.0028 62.9734 38.216 62.6439L38.416 62.7733C38.1997 63.1076 37.9683 63.4385 37.7285 63.7567ZM10.1864 62.6021C9.97429 62.2654 9.77166 61.9168 9.58419 61.5658L9.79434 61.4536C9.97905 61.7994 10.1789 62.1431 10.388 62.4751L10.1864 62.6021ZM39.0314 61.7431L38.8227 61.6284C39.0121 61.2838 39.1912 60.9283 39.355 60.5717L39.5715 60.6712C39.4053 61.033 39.2237 61.3936 39.0314 61.7431ZM9.05798 60.4893C8.89624 60.1257 8.74575 59.7518 8.6107 59.378L8.83486 59.297C8.96792 59.6655 9.11622 60.0339 9.27567 60.3924L9.05798 60.4893ZM40.0331 59.5627L39.81 59.4791C39.9477 59.1114 40.0737 58.7342 40.1845 58.3578L40.413 58.4251C40.3007 58.8069 40.1729 59.1896 40.0331 59.5627ZM8.24423 58.2361C8.13634 57.8527 8.04113 57.4606 7.96116 57.0706L8.19457 57.0228C8.2733 57.4071 8.36718 57.7935 8.47354 58.1715L8.24423 58.2361ZM40.7098 57.2631L40.477 57.2125C40.5603 56.8293 40.6307 56.4379 40.6864 56.049L40.9223 56.0829C40.8658 56.4772 40.7943 56.8744 40.7098 57.2631ZM7.76282 55.888C7.71116 55.4938 7.67304 55.0921 7.64959 54.6943L7.88749 54.6803C7.91065 55.0726 7.9482 55.4685 7.99909 55.8571L7.76282 55.888ZM41.0494 54.8905L40.8117 54.8738C40.8394 54.483 40.8534 54.0855 40.8534 53.6923H41.0916C41.0916 54.091 41.0774 54.4941 41.0494 54.8905ZM7.85937 53.4981L7.62109 53.4953C7.62567 53.0965 7.64464 52.6936 7.67723 52.2976L7.91465 52.3172C7.88253 52.7077 7.86394 53.1049 7.85937 53.4981ZM40.8347 52.8987C40.816 52.5056 40.7831 52.1093 40.7368 51.7206L40.9734 51.6924C41.0204 52.0867 41.0537 52.4887 41.0727 52.8874L40.8347 52.8987ZM8.05399 51.1433L7.81848 51.1068C7.87957 50.713 7.95573 50.3168 8.04475 49.9292L8.27692 49.9826C8.18924 50.3647 8.11423 50.7552 8.05399 51.1433ZM40.555 50.5526C40.4807 50.1673 40.3915 49.7797 40.2897 49.4007L40.5198 49.3389C40.6231 49.7235 40.7136 50.1168 40.7889 50.5076L40.555 50.5526ZM8.58315 48.8408L8.35536 48.7708C8.4725 48.3895 8.60507 48.0078 8.74927 47.6363L8.97135 47.7226C8.82924 48.0887 8.69857 48.465 8.58315 48.8408ZM39.942 48.2709C39.8133 47.9007 39.6693 47.5304 39.5143 47.1705L39.7331 47.0762C39.8905 47.4415 40.0365 47.817 40.1671 48.1927L39.942 48.2709ZM9.43941 46.6355L9.22411 46.5335C9.39462 46.1737 9.58057 45.8152 9.77681 45.4679L9.9843 45.5852C9.79082 45.9275 9.60744 46.2808 9.43941 46.6355ZM39.0082 46.1033C38.8275 45.755 38.6318 45.409 38.4266 45.0748L38.6297 44.9501C38.8378 45.2891 39.0363 45.6402 39.2196 45.9935L39.0082 46.1033ZM10.603 44.577L10.4044 44.4452C10.6247 44.1135 10.8599 43.7854 11.1035 43.47L11.2921 43.6156C11.052 43.9266 10.8201 44.2501 10.603 44.577ZM37.773 44.0905C37.5442 43.7716 37.3011 43.4569 37.0503 43.1551L37.2336 43.0028C37.488 43.3089 37.7346 43.6282 37.9665 43.9517L37.773 44.0905ZM12.048 42.7062L11.8704 42.5475C12.1356 42.2505 12.415 41.9593 12.7007 41.6819L12.8667 41.8528C12.585 42.1263 12.3096 42.4134 12.048 42.7062ZM36.2628 42.2732C35.991 41.9898 35.7055 41.7127 35.4143 41.4495L35.5742 41.2728C35.8695 41.5398 36.1591 41.8208 36.4347 42.1083L36.2628 42.2732ZM13.7439 41.0602L13.5905 40.8778C13.895 40.6217 14.2128 40.3733 14.5351 40.1392L14.6752 40.332C14.3574 40.5627 14.0441 40.8078 13.7439 41.0602ZM34.5093 40.6884C34.1997 40.4464 33.8778 40.2126 33.5521 39.9934L33.685 39.7958C34.0154 40.018 34.3421 40.2551 34.656 40.5006L34.5093 40.6884ZM15.6557 39.6726L15.5299 39.4703C15.8679 39.2601 16.2176 39.0595 16.5697 38.8742L16.6808 39.0851C16.3337 39.2678 15.9888 39.4654 15.6557 39.6726ZM32.5475 39.3689C32.2066 39.1735 31.8543 38.988 31.5005 38.8178L31.6039 38.6031C31.9629 38.7759 32.3202 38.9639 32.666 39.1622L32.5475 39.3689ZM17.7449 38.5727L17.6493 38.3544C18.0136 38.195 18.3882 38.0467 18.7632 37.9138L18.8428 38.1384C18.4732 38.2693 18.1038 38.4154 17.7449 38.5727ZM30.4163 38.3435C30.051 38.1991 29.6756 38.0661 29.3004 37.9485L29.3717 37.7211C29.7523 37.8405 30.1331 37.9753 30.5038 38.1218L30.4163 38.3435ZM19.9705 37.7839L19.9073 37.5542C20.2907 37.4487 20.6834 37.3559 21.0743 37.278L21.1208 37.5117C20.7355 37.5883 20.3485 37.6799 19.9705 37.7839ZM28.1605 37.6356C27.7787 37.5454 27.3885 37.4681 27.001 37.4056L27.0388 37.1704C27.432 37.2338 27.8278 37.3122 28.2151 37.4036L28.1605 37.6356ZM22.2877 37.3231L22.2581 37.0867C22.6523 37.0374 23.0542 37.0017 23.4524 36.9804L23.4651 37.2183C23.0725 37.2393 22.6764 37.2745 22.2877 37.3231ZM25.828 37.2595C25.4377 37.225 25.0405 37.204 24.6476 37.1973L24.6517 36.959C25.0504 36.9659 25.4531 36.9872 25.8491 37.0222L25.828 37.2595Z" fill="#00B560" fill-opacity="0.5"/>
<path d="M91.3703 13.5726C89.1533 13.5726 87.3496 11.769 87.3496 9.55198C87.3496 7.33499 89.1533 5.53125 91.3703 5.53125C93.5873 5.53125 95.3911 7.33489 95.3911 9.55198C95.391 11.769 93.5872 13.5726 91.3703 13.5726ZM91.3703 5.70996C89.2518 5.70996 87.5283 7.43344 87.5283 9.55198C87.5283 11.6704 89.2518 13.3939 91.3703 13.3939C93.4889 13.3939 95.2124 11.6704 95.2124 9.55198C95.2123 7.43344 93.4888 5.70996 91.3703 5.70996Z" fill="#00B560" fill-opacity="0.5"/>
<path d="M133.201 28.006V100.458C133.201 101.966 131.978 103.189 130.472 103.189H25.1837C23.6755 103.189 22.4531 101.966 22.4531 100.458V28.006C22.4531 26.4977 23.6755 25.2754 25.1837 25.2754H130.472C131.978 25.2754 133.201 26.4977 133.201 28.006Z" fill="white"/>
<path d="M130.472 103.308H25.1837C23.6124 103.308 22.334 102.029 22.334 100.458V28.006C22.334 26.4346 23.6124 25.1562 25.1837 25.1562H130.472C132.042 25.1562 133.32 26.4346 133.32 28.006V100.458C133.32 102.029 132.042 103.308 130.472 103.308ZM25.1837 25.3945C23.7438 25.3945 22.5723 26.5661 22.5723 28.006V100.458C22.5723 101.898 23.7438 103.069 25.1837 103.069H130.472C131.911 103.069 133.081 101.898 133.081 100.458V28.006C133.081 26.5661 131.911 25.3945 130.472 25.3945H25.1837Z" fill="#00B560" fill-opacity="0.5"/>
<path d="M133.201 28.006V32.3045H22.4531V28.006C22.4531 26.4977 23.6755 25.2754 25.1837 25.2754H130.472C131.978 25.2754 133.201 26.4977 133.201 28.006Z" fill="white"/>
<path d="M133.32 32.4236H22.334V28.006C22.334 26.4346 23.6124 25.1562 25.1837 25.1562H130.472C132.042 25.1562 133.32 26.4346 133.32 28.006V32.4236ZM22.5723 32.1853H133.081V28.006C133.081 26.5661 131.911 25.3945 130.472 25.3945H25.1837C23.7438 25.3945 22.5723 26.5661 22.5723 28.006V32.1853Z" fill="#00B560" fill-opacity="0.5"/>
<path d="M28.6008 30.0611C29.3027 30.0611 29.8716 29.4921 29.8716 28.7903C29.8716 28.0885 29.3027 27.5195 28.6008 27.5195C27.899 27.5195 27.3301 28.0885 27.3301 28.7903C27.3301 29.4921 27.899 30.0611 28.6008 30.0611Z" fill="#039D55"/>
<path d="M33.4466 27.5195C32.7459 27.5195 32.1758 28.0896 32.1758 28.7903C32.1758 29.491 32.7458 30.0612 33.4466 30.0612C34.1475 30.0612 34.7175 29.4911 34.7175 28.7903C34.7175 28.0896 34.1474 27.5195 33.4466 27.5195Z" fill="#039D55"/>
<path d="M38.2903 30.0611C37.5896 30.0611 37.0195 29.491 37.0195 28.7903C37.0195 28.0896 37.5896 27.5195 38.2903 27.5195C38.991 27.5195 39.5611 28.0896 39.5611 28.7903C39.5612 29.491 38.9911 30.0611 38.2903 30.0611ZM38.2903 27.7578C37.7209 27.7578 37.2578 28.221 37.2578 28.7903C37.2578 29.3596 37.721 29.8228 38.2903 29.8228C38.8596 29.8228 39.3228 29.3596 39.3228 28.7903C39.3229 28.221 38.8597 27.7578 38.2903 27.7578Z" fill="#00B560" fill-opacity="0.5"/>
<path d="M69.559 30.2046H45.9402C45.1601 30.2046 44.5254 29.5699 44.5254 28.7898C44.5254 28.0097 45.1601 27.375 45.9402 27.375H69.5591C70.3392 27.375 70.9739 28.0097 70.9739 28.7898C70.9739 29.5699 70.3391 30.2046 69.559 30.2046ZM45.9402 27.6133C45.2915 27.6133 44.7637 28.1411 44.7637 28.7898C44.7637 29.4385 45.2915 29.9663 45.9402 29.9663H69.5591C70.2078 29.9663 70.7356 29.4385 70.7356 28.7898C70.7356 28.1411 70.2078 27.6133 69.5591 27.6133H45.9402Z" fill="#00B560" fill-opacity="0.5"/>
<path d="M99.5936 66.0223C99.5936 77.4308 90.3462 86.6806 78.9377 86.6806C67.5291 86.6806 58.2793 77.4308 58.2793 66.0223C58.2793 55.319 66.4211 46.5172 76.848 45.4688L77.5366 52.2476C70.5504 52.9506 65.0963 58.8502 65.0963 66.0223C65.0963 73.6685 71.2938 79.866 78.9377 79.866C86.5815 79.866 92.7766 73.6685 92.7766 66.0223C92.7766 64.6879 92.5884 63.3989 92.2357 62.1789L98.7859 60.287C99.3125 62.1074 99.5936 64.0327 99.5936 66.0223Z" fill="#00B560" fill-opacity="0.5"/>
<path d="M78.937 82.7021C88.1487 82.7021 95.6162 75.2346 95.6162 66.0229C95.6162 56.8113 88.1487 49.3438 78.937 49.3438C69.7253 49.3438 62.2578 56.8113 62.2578 66.0229C62.2578 75.2346 69.7253 82.7021 78.937 82.7021Z" fill="white"/>
<path opacity="0.5" d="M78.937 82.7021C88.1487 82.7021 95.6162 75.2346 95.6162 66.0229C95.6162 56.8113 88.1487 49.3438 78.937 49.3438C69.7253 49.3438 62.2578 56.8113 62.2578 66.0229C62.2578 75.2346 69.7253 82.7021 78.937 82.7021Z" fill="#DAECE4"/>
<path d="M78.937 77.839C85.4616 77.839 90.7509 72.5484 90.7509 66.022C90.7509 59.4957 85.4616 54.2051 78.937 54.2051C72.4123 54.2051 67.123 59.4957 67.123 66.022C67.123 72.5484 72.4123 77.839 78.937 77.839Z" fill="white"/>
<path d="M80.2864 71.8347V73.6311H78.0043V71.9158C76.3862 71.8189 74.8168 71.3814 73.8457 70.7829L75.0751 67.9986C76.1437 68.63 77.5668 69.0346 78.8132 69.0346C79.8977 69.0346 80.2864 68.8078 80.2864 68.419C80.2864 66.9949 74.0235 68.1443 74.0235 63.9194C74.0235 62.09 75.3504 60.5526 78.0042 60.1802V58.416H80.2864V60.1479C81.4828 60.2612 82.6489 60.569 83.5713 61.087L82.4223 63.8548C81.3049 63.288 80.2535 63.0133 79.2665 63.0133C78.1491 63.0133 77.7934 63.3368 77.7934 63.7249C77.7934 65.0851 84.0562 63.9517 84.0562 68.1277C84.0562 69.8762 82.7939 71.3978 80.2864 71.8347Z" fill="#00B560" fill-opacity="0.5"/>
<path d="M152.477 11.1445H107.537V38.6233H152.477V11.1445Z" fill="white"/>
<path d="M152.596 38.7425H107.418V11.0254H152.596V38.7425ZM107.656 38.5042H152.358V11.2637H107.656V38.5042Z" fill="#00B560" fill-opacity="0.5"/>
<path d="M115.78 29.877H113.193V34.6268H115.78V29.877Z" fill="#DAECE4"/>
<path d="M120.954 27.7051H118.367V34.6254H120.954V27.7051Z" fill="#DAECE4"/>
<path d="M126.126 29.4805H123.539V34.6265H126.126V29.4805Z" fill="#DAECE4"/>
<path d="M131.299 25.8594H128.713V34.6264H131.299V25.8594Z" fill="#DAECE4"/>
<path d="M136.473 23.543H133.887V34.6261H136.473V23.543Z" fill="#DAECE4"/>
<path d="M141.647 20.2344H139.061V34.6255H141.647V20.2344Z" fill="#DAECE4"/>
<path d="M146.817 15.1406H144.23V34.6259H146.817V15.1406Z" fill="#DAECE4"/>
<path d="M115.249 17.4512H113.193V19.7786H115.249V17.4512Z" fill="#DAECE4"/>
<path d="M132.347 18.5293H118.426V19.1258H132.347V18.5293Z" fill="#DAECE4"/>
<path d="M112.037 52.5514L109.191 44.6895C105.976 45.8539 103.678 48.934 103.678 52.5514C103.678 57.1684 107.421 60.9112 112.037 60.9112C116.654 60.9112 120.397 57.1683 120.397 52.5514C120.397 51.1621 120.056 49.8532 119.457 48.7004L112.037 52.5514Z" fill="#E8EBE9"/>
<path d="M120.568 45.7216C119.175 43.0433 116.377 41.2129 113.149 41.2129C112.15 41.2129 111.191 41.3889 110.303 41.7107L113.149 49.5727L120.568 45.7216Z" fill="#00B560" fill-opacity="0.5"/>
<path d="M123.872 79.3438H104.096V98.1674H123.872V79.3438Z" fill="#E8EBE9"/>
<path d="M118.273 84.3477H107.193V85.1425H118.273V84.3477Z" fill="white"/>
<path d="M118.273 86.7285H107.193V87.5234H118.273V86.7285Z" fill="white"/>
<path d="M48.3809 43.3613H31.1836V72.4308H48.3809V43.3613Z" fill="#E8EBE9"/>
<path d="M45.083 47.5723H33.8047V57.8974H45.083V47.5723Z" fill="white"/>
<path d="M33.8875 47.4844L33.7266 47.6602L45.0051 57.9861L45.166 57.8104L33.8875 47.4844Z" fill="#E8EBE9"/>
<path d="M44.9977 47.4846L33.7207 57.8105L33.8816 57.9863L45.1586 47.6603L44.9977 47.4846Z" fill="#E8EBE9"/>
<path d="M39.4507 55.2344H0.115234V81.1518H39.4507V55.2344Z" fill="white"/>
<path d="M39.5629 81.264H0V55.1191H39.5629V81.264ZM0.227505 81.0366H39.3354V55.3466H0.227505V81.0366Z" fill="#00B560" fill-opacity="0.5"/>
<path d="M4.25977 74.8941L6.80139 70.1286L12.0434 75.053L15.538 64.8866L22.0509 72.0348L26.3399 70.2875L34.1234 60.1211" fill="white"/>
<path d="M12.0958 75.2661L6.83288 70.3221L4.36455 74.9502L4.1543 74.8381L6.76912 69.9353L11.9903 74.84L15.4904 64.6579L22.0826 71.8932L26.2645 70.1895L34.0285 60.0488L34.2177 60.1936L26.4144 70.3856L22.0185 72.1766L21.9625 72.1151L15.5851 65.1155L12.0958 75.2661Z" fill="#00B560" fill-opacity="0.5"/>
<path d="M6.81932 70.7636C7.1812 70.7636 7.47457 70.4703 7.47457 70.1084C7.47457 69.7465 7.1812 69.4531 6.81932 69.4531C6.45743 69.4531 6.16406 69.7465 6.16406 70.1084C6.16406 70.4703 6.45743 70.7636 6.81932 70.7636Z" fill="#00B560" fill-opacity="0.5"/>
<path d="M12.0049 75.5898C12.3667 75.5898 12.6601 75.2964 12.6601 74.9346C12.6601 74.5727 12.3667 74.2793 12.0049 74.2793C11.643 74.2793 11.3496 74.5727 11.3496 74.9346C11.3496 75.2964 11.643 75.5898 12.0049 75.5898Z" fill="#00B560" fill-opacity="0.5"/>
<path d="M15.5771 65.582C15.939 65.582 16.2324 65.2886 16.2324 64.9267C16.2324 64.5649 15.939 64.2715 15.5771 64.2715C15.2152 64.2715 14.9219 64.5649 14.9219 64.9267C14.9219 65.2886 15.2152 65.582 15.5771 65.582Z" fill="#00B560" fill-opacity="0.5"/>
<path d="M28.1206 59.3652H11.4414V59.6035H28.1206V59.3652Z" fill="#00B560" fill-opacity="0.5"/>
<path d="M93.6358 117.879C92.9308 113.259 93.8999 108.401 96.324 104.404C98.7481 100.407 102.609 97.3031 107.032 95.793C104.527 97.5463 102.998 100.38 101.931 103.246C100.864 106.111 100.164 109.119 98.848 111.878C97.5315 114.638 95.4561 117.216 92.5781 118.249L93.6358 117.879Z" fill="#00B560" fill-opacity="0.5"/>
<path d="M92.9435 117.919C92.8435 112.579 91.8062 107.257 89.8933 102.27C89.214 100.5 88.3994 98.7318 87.075 97.3744C85.7505 96.0169 83.8243 95.1224 81.957 95.4541C84.2826 97.1946 85.4871 100.058 86.1654 102.882C86.8437 105.707 87.1051 108.637 88.0603 111.38C89.0156 114.124 90.8426 116.768 93.5768 117.748L92.9435 117.919Z" fill="#00B560" fill-opacity="0.5"/>
<path d="M92.5797 118.269C91.2502 114.689 89.805 111.018 87.1314 108.291C84.4578 105.564 80.2221 104.003 76.7207 105.528C79.5562 106.171 82.1546 107.813 83.9529 110.097C85.2717 111.773 86.1587 113.759 87.515 115.405C88.8713 117.05 90.9402 118.375 93.0361 117.983L92.5797 118.269Z" fill="#DAECE4"/>
<path d="M92.155 118.024C91.6102 114.095 91.0652 110.102 91.6393 106.177C92.2133 102.252 94.0693 98.3326 97.3947 96.1699C95.554 97.9749 94.9396 100.709 94.9387 103.287C94.9378 105.865 95.4598 108.419 95.5039 110.997C95.548 113.575 95.0361 116.313 93.2925 118.212L92.155 118.024Z" fill="#DAECE4"/>
<path d="M93.9941 117.453C95.2685 114.206 96.6272 110.834 99.2225 108.503C100.889 107.007 103.012 106.025 105.231 105.725C103.675 106.966 102.701 108.786 101.892 110.605C101.084 112.425 100.387 114.32 99.2165 115.93C98.0464 117.541 96.2881 118.866 94.299 118.951L93.9941 117.453Z" fill="#DAECE4"/>
<path d="M100.466 127.333H86.1522L83.9453 116.322H102.673L100.466 127.333Z" fill="white"/>
<path d="M100.565 127.453H86.0553L83.8008 116.203H102.819L100.565 127.453ZM86.2505 127.214H100.369L102.528 116.441H84.0915L86.2505 127.214Z" fill="#00B560" fill-opacity="0.5"/>
<path d="M126.091 120.713V127.334H117.504L121.435 124.127L121.642 120.092L126.091 120.713Z" fill="#DAECE4"/>
<path d="M121.522 124.036L121.357 124.209L122.997 125.768L123.161 125.596L121.522 124.036Z" fill="#1B1B43"/>
<path d="M125.259 122.469H122.32V122.707H125.259V122.469Z" fill="#1B1B43"/>
<path d="M136.126 121.023L136.437 127.334H127.85L131.471 124.23V120.402L136.126 121.023Z" fill="#DAECE4"/>
<path d="M131.548 124.128L131.391 124.307L132.724 125.484L132.882 125.306L131.548 124.128Z" fill="#1B1B43"/>
<path d="M135.346 122.588H132.447V122.826H135.346V122.588Z" fill="#1B1B43"/>
<path d="M126.957 82.652C127.105 95.8459 128.198 108.83 130.289 121.592H137.525C136.02 111.832 135.339 99.9796 136.181 84.2657L130.956 79.9863L126.957 82.652Z" fill="#FE5B52"/>
<path d="M121.236 84.399L117.962 98.96C117.175 102.459 117.12 106.083 117.801 109.604L120.101 121.498H127.337L125.147 105.884L130.383 82.082L121.236 84.399Z" fill="#FE5B52"/>
<path d="M127.444 98.3526C127.426 98.0526 127.014 91.3559 126.971 90.5073L125.08 89.8197L125.161 89.5957L127.206 90.339V90.4225C127.206 90.5692 127.517 95.6642 127.682 98.3378L127.444 98.3526Z" fill="#BE443D"/>
<path d="M143.111 51.5218L143.498 50.5985C143.498 50.5985 142.098 47.6498 142.545 47.2626C142.992 46.8755 143.707 47.9774 143.707 47.9774C143.707 47.9774 143.498 44.4033 144.183 44.3735C144.761 44.3483 144.719 45.3862 144.779 46.9349C144.779 46.9349 145.136 46.4584 145.794 46.9508C146.089 46.4584 146.715 46.7861 146.894 47.0839C147.102 46.8456 147.966 46.9052 147.847 47.9179C147.696 49.2022 147.102 51.5814 147.102 51.5814L145.196 53.16L143.111 51.5218Z" fill="#FFBC96"/>
<path d="M127.803 63.8541L130.701 63.8311C135.785 63.3776 139.756 59.2475 139.756 59.2475L143.112 51.5234L147.103 51.583L144.76 60.6608C144.424 61.9645 143.699 63.1352 142.682 64.0176L134.355 71.2406L127.803 63.8541Z" fill="#039D55"/>
<path d="M119.855 70.4244L121.235 84.3958L136.18 84.2637L135.663 67.4257L127.8 63.8516L122.36 66.1549L119.855 70.4244Z" fill="#039D55"/>
<path d="M110.602 71.7829C110.357 71.566 110.051 71.4342 109.725 71.4071C108.074 71.2695 102.909 70.8709 102.959 71.2713C103.019 71.7479 106.95 73.5349 106.95 73.5349C107.791 74.4811 108.632 75.4273 109.473 76.3735L111.783 72.8313L110.602 71.7829Z" fill="#FFBC96"/>
<path d="M121.866 65.1966C120.801 65.3826 119.886 66.059 119.396 67.0222L114.992 75.6784L111.783 72.8301L109.473 76.3724C109.754 76.6888 110.035 77.0051 110.316 77.3214C111.563 78.7255 113.018 80.6121 114.966 81.021C115.959 81.2295 116.883 80.8171 117.595 80.1343C118.116 79.6336 118.582 79.0151 118.954 78.395L120.711 75.4997L126.31 64.4199L121.866 65.1966Z" fill="#039D55"/>
<path d="M119.97 70.4203L119.732 70.4434L120.569 79.0407L120.806 79.0176L119.97 70.4203Z" fill="#DAECE4"/>
<path d="M135.754 69.9883L134.354 71.2392L135.843 73.7114L135.754 69.9883Z" fill="#1B1B43"/>
<path d="M145.295 48.7127C144.733 48.7127 144.69 47.9761 144.689 46.9355H144.868C144.868 48.1605 144.968 48.534 145.295 48.534C145.361 48.534 145.417 48.5079 145.467 48.4542C145.626 48.2834 145.688 47.8844 145.707 47.5261C145.694 47.267 145.701 47.0415 145.704 46.9478L145.883 46.9452C145.884 46.9672 145.9 47.208 145.887 47.5046C145.912 47.9899 145.993 48.4695 146.155 48.518C146.246 48.5451 146.324 48.5335 146.395 48.4826C146.588 48.3437 146.696 47.9506 146.752 47.5995C146.757 47.4487 146.773 47.2736 146.805 47.0707L146.983 47.0873C146.982 47.1074 146.975 47.3111 146.938 47.5675C146.925 47.9391 146.967 48.299 147.117 48.3622C147.228 48.4091 147.32 48.4087 147.398 48.3613C147.603 48.2363 147.677 47.8153 147.688 47.6635L147.866 47.677C147.864 47.7029 147.815 48.3159 147.491 48.5138C147.363 48.5924 147.214 48.5969 147.048 48.527C147.006 48.5095 146.875 48.4333 146.801 48.1544C146.731 48.3542 146.633 48.5307 146.499 48.6275C146.382 48.7118 146.249 48.7326 146.104 48.6891C145.947 48.6419 145.849 48.4413 145.79 48.1907C145.746 48.3463 145.684 48.4832 145.597 48.5761C145.513 48.6668 145.411 48.7127 145.295 48.7127Z" fill="#D28572"/>
<path d="M126.543 67.2413C125.273 67.3437 124.163 66.3978 124.06 65.1302L124.034 64.8085L123.672 60.3146L126.472 60.0907L128.268 59.9453L128.654 64.7584C128.757 66.0284 127.811 67.1388 126.543 67.2413Z" fill="#FFBC96"/>
<path d="M127.368 61.6072C126.495 63.1441 125.247 64.2497 124.034 64.8096L123.672 60.3158L126.472 60.0918L127.368 61.6072Z" fill="#1B1B43"/>
<path d="M128.281 56.9013L127.726 61.5882C127.726 61.5882 125.939 63.2966 123.318 63.2156C122.362 63.187 121.8 62.2816 121.471 61.1307C121.335 60.6494 121.24 60.1276 121.173 59.6058C120.954 57.8807 121.054 56.1865 121.054 56.1865L125.105 54.8379L128.281 56.9013Z" fill="#FFBC96"/>
<path d="M127.665 58.8275C127.243 57.324 126.485 56.5677 125.461 56.4051C122.204 58.1723 120.09 57.1199 118.551 55.1541C122.323 55.8888 123.972 50.5276 127.585 54.1017C130.266 54.9158 130.217 57.4773 128.698 59.5622L127.665 58.8275Z" fill="#1B1B43"/>
<path d="M129.339 59.4088C129.477 58.7013 129.092 58.0307 128.478 57.9108C127.865 57.791 127.256 58.2674 127.117 58.9749C126.979 59.6823 127.364 60.353 127.978 60.4728C128.591 60.5927 129.201 60.1163 129.339 59.4088Z" fill="#FFBC96"/>
<path d="M128.655 58.7004C128.468 58.732 128.347 58.8732 128.257 59.0339C128.168 59.1973 128.11 59.3786 128.074 59.5746L128.005 59.5788C127.975 59.4741 127.975 59.3626 127.993 59.2555C128.01 59.1479 128.047 59.0432 128.102 58.9466C128.157 58.8509 128.23 58.7608 128.328 58.6972C128.423 58.6329 128.55 58.6 128.66 58.6309L128.655 58.7004Z" fill="#1B1B43"/>
<path d="M122.025 59.0158C122.025 59.2187 121.927 59.3831 121.806 59.3831C121.686 59.3831 121.588 59.2186 121.588 59.0158C121.588 58.8129 121.686 58.6484 121.806 58.6484C121.927 58.6484 122.025 58.8128 122.025 59.0158Z" fill="#1B1B43"/>
<path d="M123.831 58.8669C123.831 59.0867 123.725 59.2649 123.594 59.2649C123.463 59.2649 123.357 59.0866 123.357 58.8669C123.357 58.647 123.463 58.4688 123.594 58.4688C123.725 58.4688 123.831 58.647 123.831 58.8669Z" fill="#1B1B43"/>
<path d="M122.522 59.3153C122.522 59.386 122.494 59.455 122.46 59.5146C122.424 59.5736 122.381 59.6244 122.339 59.671C122.254 59.7636 122.176 59.8477 122.157 59.9355C122.134 60.0255 122.169 60.114 122.238 60.2029C122.307 60.2904 122.401 60.3695 122.491 60.4574L122.453 60.5156C122.336 60.4663 122.221 60.4048 122.122 60.3084C122.072 60.2601 122.028 60.2005 121.999 60.1281C121.971 60.0548 121.964 59.971 121.984 59.8945C122.004 59.8172 122.044 59.7498 122.09 59.6976C122.136 59.6448 122.185 59.6012 122.232 59.5617C122.325 59.4808 122.414 59.4115 122.452 59.3047L122.522 59.3153Z" fill="#1B1B43"/>
<path d="M122.693 61.3017C122.945 61.2457 123.178 61.166 123.387 61.0362C123.491 60.9723 123.589 60.8981 123.684 60.8167C123.778 60.7353 123.869 60.6467 123.963 60.5566L124.019 60.5975C123.903 60.8365 123.715 61.0464 123.479 61.1883C123.244 61.3304 122.964 61.398 122.697 61.3714L122.693 61.3017Z" fill="#1B1B43"/>
<path d="M123.307 57.8813C123.256 58.1502 124.101 58.2368 124.253 58.2635C124.378 58.2854 124.556 58.2996 124.583 58.1098C124.615 57.8743 124.359 57.8494 124.215 57.8181C124.076 57.788 123.355 57.6272 123.307 57.8813Z" fill="#1B1B43"/>
<path d="M122.131 58.0466C122.127 58.3066 121.455 58.3326 121.332 58.3478C121.231 58.3603 121.09 58.3619 121.1 58.1793C121.113 57.9526 121.317 57.946 121.435 57.9257C121.548 57.9063 122.135 57.8011 122.131 58.0466Z" fill="#1B1B43"/>
<path opacity="0.2" d="M125.288 60.5303C125.765 60.5303 126.151 60.1436 126.151 59.6665C126.151 59.1895 125.765 58.8027 125.288 58.8027C124.811 58.8027 124.424 59.1895 124.424 59.6665C124.424 60.1436 124.811 60.5303 125.288 60.5303Z" fill="#FE5B52"/>
<path opacity="0.2" d="M121.818 60.4418C121.818 60.7254 121.682 60.9755 121.47 61.1304C121.334 60.6491 121.239 60.1273 121.172 59.6055C121.544 59.7032 121.818 60.0415 121.818 60.4418Z" fill="#FE5B52"/>
<path d="M60.2556 88.2773H43.6797V89.3931H60.2556V88.2773Z" fill="#00B560" fill-opacity="0.5"/>
<path d="M60.2545 88.2799H46.2559L51.5575 75.3535H65.5561L60.2545 88.2799Z" fill="white"/>
<path d="M60.3343 88.399H46.0781L51.4774 75.2344H65.7335L60.3343 88.399ZM46.4334 88.1607H60.1745L65.3784 75.4726H51.6373L46.4334 88.1607Z" fill="#00B560" fill-opacity="0.5"/>
<path d="M59.0462 87.1899H48.0449L52.2114 77.0312H63.2127L59.0462 87.1899Z" fill="#E8EBE9"/>
<path d="M54.6816 89.7461H54.4434V127.391H54.6816V89.7461Z" fill="#1B1B43"/>
<path d="M67.9309 89.3906H41.1914V91.5174H67.9309V89.3906Z" fill="#DAECE4"/>
<path d="M19.6152 105.559H19.377V127.391H19.6152V105.559Z" fill="#1B1B43"/>
<path d="M26.0354 106.572H12.957C13.2347 105.244 14.4053 104.293 15.7617 104.293H23.2307C24.5872 104.293 25.7578 105.244 26.0354 106.572Z" fill="#DAECE4"/>
<path d="M22.8914 127.327H16.1016C16.1016 126.501 16.7708 125.832 17.5964 125.832H21.3967C22.2222 125.832 22.8914 126.501 22.8914 127.327Z" fill="#DAECE4"/>
<path d="M29.5893 73.1641C29.9238 73.6449 30.4033 74.3258 30.4564 74.9209C30.5334 75.786 29.1491 75.1796 29.1328 75.2544C29.1327 75.2542 29.5893 73.1641 29.5893 73.1641Z" fill="#D28572"/>
<path d="M27.4747 74.1816H23.0977V80.5962H27.4747V74.1816Z" fill="#FFBC96"/>
<path d="M27.475 75.2812V79.8608C26.0958 78.9944 24.9035 77.7075 23.873 76.2222L27.475 75.2812Z" fill="#1B1B43"/>
<path d="M29.9339 73.5548C29.7976 75.7707 28.9451 78.2772 26.6184 77.6588C24.7908 77.1731 22.7793 75.6343 22.7793 73.4142C22.7793 71.1942 24.3158 69.3945 26.2112 69.3945C27.3958 69.3945 28.8873 69.9694 29.5893 71.0799C30.0104 71.7461 29.9934 72.5885 29.9339 73.5548Z" fill="#FFBC96"/>
<path d="M26.0604 72.9109C26.68 71.2675 28.0984 71.106 28.0984 71.106C28.0984 71.106 31.3824 74.3542 31.179 70.9981C31.0174 68.331 28.4108 68.5831 28.4108 68.5831C27.1373 66.9253 25.095 67.574 24.3502 68.5351C23.6053 69.4962 23.8696 68.9436 22.1157 69.5682C20.3617 70.1929 21.2988 72.86 20.9864 73.0521C18.6558 73.0521 19.0883 75.3587 19.0883 75.3587L24.6056 77.1583L25.9346 73.5304L26.0604 72.9109Z" fill="#1B1B43"/>
<path d="M26.6347 73.0979C26.9758 73.6889 26.8837 74.3807 26.4286 74.6434C25.9737 74.9061 25.3284 74.64 24.9872 74.049C24.6461 73.4581 24.7382 72.7663 25.1932 72.5036C25.6482 72.2409 26.2936 72.507 26.6347 73.0979Z" fill="#FFBC96"/>
<path d="M25.9306 73.8107C25.853 73.661 25.7878 73.5154 25.6833 73.4135C25.6321 73.3621 25.5726 73.3204 25.505 73.2838C25.4375 73.2473 25.3623 73.2168 25.2852 73.1804L25.297 73.1183C25.3845 73.1135 25.4732 73.1237 25.5603 73.153C25.6472 73.1816 25.7317 73.2321 25.798 73.3007C25.8644 73.3693 25.9126 73.4516 25.9425 73.5363C25.9731 73.6211 25.9894 73.7081 25.9919 73.7954L25.9306 73.8107Z" fill="#1B1B43"/>
<path d="M23.8704 69.8416C24.8933 69.7931 25.68 68.8555 25.6276 67.7472C25.5751 66.639 24.7033 65.7799 23.6803 65.8283C22.6574 65.8767 21.8707 66.8144 21.9231 67.9226C21.9756 69.0309 22.8474 69.89 23.8704 69.8416Z" fill="#1B1B43"/>
<path opacity="0.2" d="M28.0312 75.6445C28.4918 75.6445 28.8652 75.2711 28.8652 74.8105C28.8652 74.3499 28.4918 73.9766 28.0312 73.9766C27.5706 73.9766 27.1973 74.3499 27.1973 74.8105C27.1973 75.2711 27.5706 75.6445 28.0312 75.6445Z" fill="#FE5B52"/>
<path d="M31.3087 96.3742L17.291 94.5871L19.9335 80.6552C20.1193 79.6807 20.7674 78.8539 21.6705 78.4441C22.4234 78.1009 23.2836 78.0795 24.0556 78.3821L28.833 80.5051C29.7527 80.9126 30.3866 81.7775 30.5009 82.7759L30.7702 87.3269L31.0776 92.4855L31.3087 96.3742Z" fill="#FFA121"/>
<path d="M44.1342 86.3654L47.8445 85.2748C48.1118 85.1961 48.3991 85.2393 48.6312 85.3934C49.6468 86.0676 52.3501 87.9752 51.6676 88.7551C51.3269 89.1445 48.2245 88.2318 48.2245 88.2318L43.7324 89.4853L44.1342 86.3654Z" fill="#FFBC96"/>
<path d="M31.0784 92.4861C29.9108 90.9992 29.2175 89.0359 28.9863 86.6055L30.771 87.3274L31.0784 92.4861Z" fill="#1B1B43"/>
<path d="M28.4094 80.3301L28.9679 80.5708C30.1178 81.0664 31.1482 81.8025 31.9899 82.7295L36.5901 87.796L44.1355 86.3663L45.1284 90.417L35.6476 93.38C34.899 93.5133 34.1341 93.255 33.6196 92.6952L26.7812 85.2544L28.4094 80.3301Z" fill="#FFA121"/>
<path d="M36.5015 87.8759C36.4792 87.8515 34.2347 85.4078 32.2909 83.2283C30.3692 81.0737 27.4395 80.0261 27.4102 80.0159L27.4892 79.791C27.5191 79.8015 30.5052 80.8682 32.4687 83.0697C34.4114 85.2479 36.6546 87.6903 36.677 87.7147L36.5015 87.8759Z" fill="#1B1B43"/>
<path d="M27.3411 86.0412L27.1699 86.207L33.5318 92.7737L33.703 92.6079L27.3411 86.0412Z" fill="#1B1B43"/>
<path d="M30.7994 117.447L27.7754 123.338L35.4146 127.259L33.3819 122.611L35.0405 118.927L30.7994 117.447Z" fill="#DAECE4"/>
<path d="M33.3502 122.494L31.1797 123.133L31.247 123.361L33.4174 122.722L33.3502 122.494Z" fill="#1B1B43"/>
<path d="M35.5572 121.319L28.6367 118.737L33.3758 103.991C34.1905 101.807 36.7 100.727 38.9809 101.578C41.2618 102.429 42.4504 104.889 41.6357 107.072L35.5572 121.319Z" fill="#334257"/>
<path d="M42.2676 120.322L42.9431 127.331H51.5302L47.5987 124.124L46.6756 120.084L42.2676 120.322Z" fill="#DAECE4"/>
<path d="M47.5411 124.015L45.5059 125.137L45.6209 125.345L47.6561 124.223L47.5411 124.015Z" fill="#1B1B43"/>
<path d="M48.463 121.155L40.9574 122.347L35.8178 107.233L34.8814 104.476L22.1171 104.579C18.96 104.65 16.4485 101.946 16.7583 98.8006L17.2897 94.5879L29.9182 96.1772L38.2173 97.0898C41.6722 97.6855 42.7326 99.7775 43.4521 102.465L48.463 121.155Z" fill="#334257"/>
<path d="M35.8192 107.234L34.8828 104.478L36.6103 104.418C36.7699 105.457 36.3577 106.617 35.8192 107.234Z" fill="#1B1B43"/>
<path d="M149.726 127.213H5.09375V127.451H149.726V127.213Z" fill="#1B1B43"/>
</svg>
